<?xml version="1.0" encoding="utf-8"?>
<!-- Generator: Adobe Illustrator 22.0.1, SVG Export Plug-In . SVG Version: 6.00 Build 0)  -->
<svg version="1.1" id="Layer_1" xmlns="http://www.w3.org/2000/svg" xmlns:xlink="http://www.w3.org/1999/xlink" x="0px" y="0px"
	 viewBox="0 0 520 533.3" style="enable-background:new 0 0 520 533.3;" xml:space="preserve">
<style type="text/css">
	.st0{fill:none;}
	.st1{fill:#999999;}
</style>
<g id="Layer_2">
	<g>
		<path class="st0" d="M285.5,181.3c0-0.1,0.1-0.1,0.2-0.2c0.9-0.8,2-1.5,1.6-3.1c-0.3-1.3-0.3-2.7-0.5-4c0-0.2-0.4-0.4-0.7-0.5
			c-2.4-1-8.1,1.4-8.9,3.9c-0.7,2.3-1.2,4.7-1.8,7.2C279.3,184.6,283.3,185.6,285.5,181.3z"/>
		<path class="st0" d="M274.2,170.3c-5.3,4.4-5.4,10.6-6.7,16.9C269.8,185.9,274.4,173.8,274.2,170.3z"/>
		<path class="st0" d="M285.4,170.2c1.5,0.1,1.8-0.2,2.1-1.6c1.1-5.4,2.7-10.7,6-15.1c1.5-2,2.7-4,3.3-6.4
			c-8.5,2-15.6,13.7-17.6,23.5C281.3,170.5,283.4,170.1,285.4,170.2z"/>
		<path class="st0" d="M231.2,104.7c5.2,4.5,8.6,10.3,10.7,16.8c1,3.1,1.9,6.2,3,9.3c0.2,0.5,0.9,1.3,1.3,1.2
			c2.3-0.4,4.7-0.9,6.9-1.7c2.5-0.9,3.3-3.1,2.4-5.5c-0.6-1.5-1.1-3.1-1.6-4.8c-1.5,1.9-2-0.4-3.2-1.1c0.3,1.1,0.6,1.8,0.8,2.6
			c-1.1,0-2.2,0.2-3.2,0.1c-0.7-0.1-1.3-0.5-1.9-0.9c-3.8-2.4-5-6-4.7-10.2c0.1-1.8-0.1-2.7-2.2-2.7c-1.7,0-1.9-0.6-0.9-2.1
			c0.7-1,1.6-1.9,2.4-2.7c-0.6-0.4-1.3-0.9-1.8-1.3c-0.7,1.7-1.4,3.5-2.2,5.4c-5.7-5.2-3.9-12.4,4.1-19.1c-1.8-0.4-3.8-0.7-5.8-1.2
			c-0.8-0.2-1.5-0.7-2,0.4c-2,4-4.1,7.9-4.1,12.5C229,101.7,229.6,103.3,231.2,104.7z"/>
		<path class="st0" d="M241.2,137.8c-2.6,2-4,5.4-3.2,8c0.5,1.9,1.1,3.8,1.6,5.7c0.1,0.5,0.4,1.1,0.7,1.3c2.4,1.6,4.9,3.1,6.8,4.3
			C245.3,151,243.2,144.4,241.2,137.8z"/>
		<path class="st0" d="M243.4,174.1c5-5.1,3.7-12.4-2.9-16.5C241.5,163.1,242.4,168.5,243.4,174.1z"/>
		<path class="st0" d="M367.5,148.4c-0.2,0.5,0.1,1.5,0.5,1.7c1.6,1,3.3,1.7,5.2,2.7c0.6-3.2,0.1-6.3-1.3-9.5
			C369.8,144.7,368.3,146.3,367.5,148.4z"/>
		<path class="st0" d="M290.6,139.5c2.4-0.2,4.9-0.5,7.3-0.7c0.6-0.1,1.1-0.1,2.1-0.2c-1.3-1.9-2.4-3.4-3.3-5
			c-0.9-1.6-1.6-3.3-2.1-5c-0.6-1.7-0.9-3.5-1.3-5.2c0.2,0,0.3-0.1,0.5-0.1c0.2,0.6,0.4,1.2,0.6,1.8c1.2,3.4,2.9,6.4,5.7,8.8
			c1.3,1.1,2.1,2.9,3.2,4.4c0.4,0.6,1,1.2,1.6,1.3c0.4,0.1,1.1-0.8,1.4-1.3c1.1-2.5,2.8-4.6,5.1-5.8c2.4-1.2,3.2-3.3,4-5.5
			c1.2-3.2,2.6-6.3,3.6-9.5c0.4-1.2,1.1-1.3,2-1.7c0.6-0.2,1.2-0.7,1.5-1.3c0.6-1.1,0.9-2.3,1.4-3.6c-0.2,0-0.4-0.1-0.6-0.1
			c-2.3,0.2-2.4,0.1-1.8-2.2c0.5-1.7,0.8-3.5,1.2-5.3c-1.1,1.7-2.1,3.4-2,5.5c0,0.2-0.1,0.5-0.1,0.7c-0.2,1.2-0.8,1.2-1.6,0.6
			c-1.9-1.4-2.8-3.4-3.1-5.7c-0.5-3.8,0.7-7,3.3-9.8c0.6-0.6,1.3-1.1,0.7-2.2c-1.4-2.6-2.9-5.2-5.4-6.8c-1.9-1.3-4.2-1.9-6.3-0.8
			C304,87,300,89.6,296.6,93c-1.2,1.3-1.2,2.1-0.3,3.6c1.4,2.3,2.8,4.8,3.6,7.4c1.4,5-1.2,10.4-5.4,12.3c-1.2,0.5-2.1,0.6-1.9-1
			c0.3-2.2-0.5-4.3-0.5-6.5c0-1.8,0-3.6,0-5.4c-0.2,0-0.4,0-0.6,0c0,1.1,0,2.1,0,3.2c0.1,3.1,0.1,6.1,0.3,9.2
			c0.1,1.2-0.4,1.2-1.3,0.9c-0.3-0.1-0.6-0.3-0.9-0.3c-0.3-0.1-0.8-0.2-0.8-0.1c-0.1,0.4-0.3,0.8-0.2,1.1c0.3,0.6,0.7,1,1.1,1.5
			c1.4,1.9,1.8,4,1.5,6.3c-0.2,1.5-1,1.2-2.4,0.8c1.2,1.1,1.6,1.7,0.3,2.4c-0.6,0.3-1.1,1.3-1.3,2c-0.3,1.3-0.1,2.7-0.4,4
			c-0.5,2.1,0.8,3.4,1.7,5C289.4,139.6,290.2,139.5,290.6,139.5z M300.4,113.9c2.8-1.5,6-2,9.2-1.6c1.1,0.1,1.7,0.5,1.6,1.8
			c-0.3,3.5-1,6.9-3.3,9.7c-2.1,2.7-5.9,4.1-8.9,3.1c-0.6-0.2-1.2-0.7-1.7-1.1c0.4-0.6,0.7-1.6,1.3-1.8c1.9-0.7,0.8-1.6,0.4-2.5
			c-0.2,0.6-0.3,1.1-0.6,1.4c-0.6,0.7-1.3,1.3-1.9,2c-0.4-1-1.2-1.9-1.2-2.9C295.2,118.3,297.2,115.6,300.4,113.9z"/>
		<path class="st0" d="M322.6,117c0-0.3-0.2-0.6-0.3-0.9c-2.3,1.1-2.6,1.5-1.8,3.6c0.5,1.2,1.3,2.4,2.1,3.4c3,3.5,2,7-2.4,8.4
			c-1.2,0.4-2.4,0.7-3.7,1c-3.5,1-5,4.2-7.2,6.6c-0.7,0.8-0.3,1.7,1,2.4c3.1,1.6,6,3.5,9,5.3c1.8,1.1,3.4,2.2,5.2,3.3
			c1.2,0.7,2.4,1,3.5-0.4c0.5-0.6,1.5-0.9,2.2-1.3c2.5-1.2,4.5-2.9,5.3-5.7c-0.8,0.8-1.5,1.7-2.4,2.5c-0.6,0.5-1.3,1-2,1.3
			c-0.5,0.2-1.2,0.1-1.8,0.1c0-0.6-0.1-1.2,0-1.8c0.1-0.6,0.3-1.2,0.4-1.9c-0.2,0-0.4-0.1-0.6-0.1c-0.2,0.9-0.4,1.8-0.5,2.7
			c-0.1,1.3-0.7,1.3-1.5,0.6c-1.7-1.6-2.5-3.7-2.1-6c0.6-3.6,2.8-6.1,5.9-7.9c1.4-0.8,2.3-0.4,3,1c1.2,2.6,2.2,5.3,1.5,8.3
			c-0.1,0.4,0,0.9,0,1.4c0.3-0.7,0.7-1.3,1-2c0.9-2.7,1.4-5.6,2.6-8.1c1.8-3.8,4.7-6.8,8.5-8.8c-1.1,1.4-2.3,2.8-3.5,4.2
			c-3.4,4.3-5.5,9-4.9,14.7c0.7,7.2-2.2,11.5-9,13.7c0.4,0.3,0.7,0.5,1,0.7c2.5,1.9,4.9,3.7,7.4,5.6c0.6,0.5,1.5,1,0.7,1.9
			c-1.7,2-0.7,4.4-1.5,6.7c4.2-0.9,7-3.5,9.9-5.9c1.2-1,2-2,1.1-3.6c-0.4-0.6-0.4-1.5-0.4-2.3c-0.1-5.6,2.8-9.6,7.2-12.4
			c5-3.1,4.1-3.3,6.8,2c0,0.1,0.1,0.1,0.1,0.2c0.5,0.5,0.9,1.5,1.4,1.5c1,0,1.7-0.6,2.2-1.7c0.8-1.8,1.9-3.5,3.2-4.9
			c2.4-2.6,2.5-2.5,0.1-5.1c-0.4-0.5-0.9-0.9-1.4-1.3c-2.1-2.1-4-4.3-4.6-7.3c-1-4.4,1-8,5.2-9.4c0.4-0.1,0.9-0.8,0.9-0.9
			c-1.1-2.2,0.6-3,1.9-3.8c1-0.6,0-1.6,0.8-2.1c-0.4,0.1-0.8,0.3-1.1,0.2c-0.2-0.1-0.3-0.6-0.3-0.7c-0.5,1.1-0.7,2.8-1.6,3.6
			c-2.1,1.6-3.3,3.8-5.2,5.5c-0.6,0.5-1.3,0.9-2,1.2c-1.4,0.8-1.9,0.1-1.9-1.2c0-1,0.2-2,0.2-3c-0.1-1.9-0.2-3.7-0.4-5.6
			c0-0.5-0.2-0.9-0.4-1.4c-0.2,0-0.4,0.1-0.6,0.1c0.8,2.9-0.5,5.9,0.5,8.9c0.3,0.8-0.1,1.7-0.1,2.6c-0.8-0.2-1.8-0.3-2.4-0.7
			c-1.2-1-2.4-2.1-3.2-3.3c-0.7-1-1-1.1-1.9-0.3c-0.8,0.7-1.7,1.4-2.7,1.8c-0.6,0.3-1.8,0.4-2,0.2c-0.3-0.6-0.3-1.5-0.3-2.2
			c0.1-1.4,0.4-2.7,0.6-4.1c-0.2,0-0.5-0.1-0.7-0.1c-0.2,1.6-0.4,3.2-0.6,4.8c-0.1,0.6-0.4,1.1-0.6,1.7c-0.6-0.3-1.2-0.5-1.7-0.8
			c-0.4-0.3-0.7-0.6-0.9-1.1c-0.8-1.8-1.6-3.6-2.4-5.5c-1.7,2.6-3.8,5.2-7.1,6.3c-3.5,1.2-6.6,0.5-9.7-2.3c1.4-0.7,2.5-1.2,3.6-1.8
			c0.2-0.1,0.4-0.5,0.5-0.8c0.1-0.2,0.1-0.5,0.1-0.7c-0.4,0.1-0.9,0.1-1.2,0.3c-0.8,0.5-1.5,1.2-2.2,1.8
			C323.2,118.4,322.7,118.1,322.6,117z M349.4,128c0.9-0.1,1.9-0.2,2.8-0.3c2.9,0.2,5.7,0.8,8.1,2.4c0.4,0.3,0.9,1.2,0.8,1.6
			c-2.2,4.9-5.1,9.2-10.9,10.2c-2.6,0.5-4.9-0.4-6.9-1.9c-1.5-1.1-1.3-1.6,0.1-2.6c0.8-0.5,2.5,0.3,2.4-1.6c-0.9,0.3-1.7,0.7-2.6,1
			c-0.6,0.2-1.2,0.3-1.7,0.4c-0.1-0.7-0.3-1.4-0.2-2C342,131.6,345.4,128.6,349.4,128z"/>
		<path class="st0" d="M335.6,145c-2.1,1.9-4.3,3.9-6.8,6.1C333,151,335,149,335.6,145z"/>
		<path class="st0" d="M322.1,124.8c-0.9-1.9-1.9-3.7-3.1-5.9c-1.7,3.7-2.4,7.5-3.4,11.7c1.9-0.4,3.4-0.6,4.8-1.2
			C322.5,128.6,323.1,126.8,322.1,124.8z"/>
		<path class="st0" d="M239.4,136c0.7-0.7,0.9-1.1,0-1.8c-4-3.2-8.2-3.1-12.8-1.4c3.1,2.5,6,4.8,8.9,7.2
			C236.8,138.7,238,137.3,239.4,136z"/>
		<path class="st0" d="M212.9,210c0.2-1.7,0.4-3,0.5-4c-2.5-0.1-4.7-0.3-7.3-0.4C208.4,207.1,210.5,208.4,212.9,210z"/>
		<path class="st0" d="M216.9,178.1c-1.7-2.2-3.7-3.5-6.5-4.1C212.9,178.8,212.9,178.8,216.9,178.1z"/>
		<path class="st0" d="M196.1,193.5c-2.1-1.6-3.8-1.3-5.9,0c4.1,3.1,8.2,6.1,12.7,9.5c-0.8-3.2-4.7-5.1-1.9-8.1
			C199.5,194.6,197.4,194.6,196.1,193.5z"/>
		<path class="st0" d="M215.1,197.7c2.5-3.4,4.8-6.6,7.1-9.8c-2.7-0.7-5.5-1.4-8.3,0.3c-1.5,0.9-3,1.7-4.6,2.5
			c-0.9,0.5-1.8,1-2.7,1.5c-0.9,0.5-1.7,1.1-2.6,1.6c0.1,0.1,0.1,0.3,0.2,0.4C208.6,193.5,212.4,194,215.1,197.7z"/>
		<path class="st0" d="M169.1,178.3c4.4,3,8.7,6.1,13,9.2c0.9,0.6,1.6,0.8,2.6,0.2c1.8-0.9,3.6-1.7,5.4-2.5c1.1-0.5,1.4-1.2,1.6-2.4
			c0.4-3.6-0.5-6.9-2.5-9.9c-1.3-2-2.7-3.8-4.1-5.7c0.5,0,0.8,0.1,1.1,0.3c4.6,3.5,7.2,8.2,7.8,13.9c0.2,1.6,0.6,1.8,2.1,1.2
			c2.3-0.9,4.6-1.6,7-2.4c1.1-0.4,2.2-0.7,3.3-1.1c-0.5-1-1-2.1-1.6-3.1c-4-6.9-9.3-12.6-16-16.9c-1-0.6-1.4-0.6-1.9,0.6
			c-0.5,1.1-1.2,2.2-2,3.2c-0.6,0.8-1.4,0.6-1.6-0.3c-0.4-1.3-0.5-2.7-0.7-4c0,0-0.1,0.2-0.3,0.4c-0.5,0.3-1,0.5-1.6,0.8
			c0.3,0.6,0.7,1.1,1,1.7c1,1.5,0.9,2.3-0.4,3.3c2.6,1.9,4.5,4.2,4,7.9c-0.8-0.3-1.6-0.3-2.1-0.7c-1.1-1-1.6-0.4-2.1,0.4
			c1.2,0.3,2.5,0.6,3.8,0.9c-2.8,4.5-8,3.7-13.8-1.9c-0.8,1.7-1.5,3.4-2.4,5C168.1,177.3,168.2,177.7,169.1,178.3z"/>
		<path class="st0" d="M164.7,183.3c-0.6-0.3-1.3-0.9-1.8,0.2c-0.4,0.9-1.3,1.9,0,2.7c3.1,1.9,6.3,3.3,10,3.6
			C170.5,187.2,167.7,185.1,164.7,183.3z"/>
		<path class="st0" d="M210.6,107.4c1.8,1.5,3.9,2.7,5.5,4.5c3.2,3.8,4.6,8.1,2.6,13c-1.3,3.1-1.4,3.1,1.6,4.8
			c0.5,0.3,1,0.6,1.5,0.7c0.6,0.1,1.4,0.3,1.9,0c4.9-2.5,10-3.3,15.6-1.4c-0.7-2.1-1.2-3.9-1.8-5.6c-2-5.6-4.7-10.9-8.7-15.4
			c-4-4.5-9.5-6.7-14.9-9.1c-0.4-0.2-1.5,0.1-1.7,0.5c-1,2.1-1.9,4.3-2.6,6.5C209.5,106.3,210.2,107,210.6,107.4z"/>
		<path class="st0" d="M220.4,136.9c-1.3,1.3,0.3,1.7,0.7,2.5c0.6,1,1.3,2,2.1,2.8c3.1,3.4,6.4,6.6,11.2,8.8
			c-1.5-6.7-4.8-11.4-10-15C222.7,134.9,222.1,135.2,220.4,136.9z"/>
		<path class="st0" d="M223.9,211.8c0.8,1.1,1.4,1.7,2.9,1.2c1.2-0.4,2.5-0.5,3.8-0.4c1.3,0.1,1.6-0.2,1.4-1.5
			c-0.4-3.1-0.9-6.2-0.7-9.2c0.3-4.7-2.9-7.5-5.2-10.8c-0.2-0.2-1-0.2-1.4,0c-0.2,0.1-0.3,0.9-0.1,1.3c0.5,1.3,1.2,2.4,1.6,3.7
			c0.9,2.5,0.7,4.9-0.8,7.3c-1.7,2.7-6.7,3.4-8-0.2c-0.1-0.2-0.4-0.4-0.8-0.8c-0.5,2.7-1.1,5.1-1.5,7.5c-0.1,0.6,0.2,1.5,0.6,1.8
			c1.6,1.1,3.3,2.2,5.1,3c0.6,0.3,1.5,0,2.1-0.2c0.2-0.1,0.2-1.2-0.1-1.7c-1.4-2.3-3-4.4-4.5-6.6c0.3,0.2,0.9,0.3,1.3,0.7
			C221,208.5,222.6,210.1,223.9,211.8z"/>
		<path class="st0" d="M181.6,140c0,1.7,0.2,3.3,0.4,5c0.1,0.8,0.3,1.7,0.7,2.2c3.1,3.7,5.8,7.7,10.4,9.8c1.1,0.5,2.1,1.2,3,2
			c3,2.6,6,5.3,9.3,8.2c1.1-1.8,2.3-3.6,3.4-5.5c-0.3,1.4-0.6,2.9-1.4,4.1c-1.8,2.8-1.5,2.8,0.7,5.3c0.6,0.7,1.8,1,2.8,1.1
			c3.4,0.6,6.2,2.3,8.3,5c0.5,0.6,1.3,1.1,2.1,1.2c5.3,0.9,10.6,1.6,16,2.4c-0.1-0.8-0.3-1.8-0.3-2.9c-0.4-5.9-0.8-11.9-1.1-17.8
			c-0.1-3.5-0.8-6.3-4.5-8.2c-5.2-2.8-8.8-7.5-11.8-12.5c-0.6-1-1.1-1.2-1.9-0.4c-0.4,0.4-0.8,0.7-1.3,1.1c0.7,0.4,1.2,0.7,1.7,1
			c1.8,1.2,3.3,2.8,3.8,5c0.2,0.8,0,1.3-0.9,1c-2.3-0.8-4.7-0.6-7.1-0.8c-1.8-0.1-3.6-0.3-5.4-0.5c1.8,0.6,3.7,0.7,5.5,0.9
			c1.9,0.2,3.7,0.5,5.5,0.8c0.7,0.1,1.6,0.4,1.8,0.8c0.2,0.5-0.2,1.4-0.6,1.9c-2.3,3-6.5,4.3-10.2,3.4c-4-1-7-3.6-9.7-6.6
			c-0.7-0.8-0.7-1.5,0.1-2.2c2.2-2,4.4-3.8,7.4-4.6c0.8-0.2,1.5-0.5,2.1-0.7c-1-1.3-1.8-2.5-2.7-3.7c-0.3-0.6-0.8-1.2-0.9-1.9
			c-0.4-4-2.8-6.7-5.7-9.1c-0.2-0.1-0.3-0.4-0.2-0.9c0.8,0.5,1.7,1,2.4,1.6c2.8,2.5,5,5.4,5.4,9.3c0.8,0.6,1.6,1.2,2.4,1.8
			c2.2,1.6,5.1,0.8,6.2-1.6c0.1-0.1,0.5-0.1,0.7-0.2c0.6-0.5,1.2-0.9,1.7-1.5c0.1-0.1-0.5-0.9-0.8-1.2c-1.1-0.9-2.2-1.8-3.3-2.7
			c-0.3-0.2-0.7-0.5-1.1-0.5c-5.3,0.8-10-2-12-7c-1.3-3.2-1.3-6.5-0.7-9.8c0.2-1.5-0.3-1.7-1.4-1.4c-1.9,0.4-3.8,0.7-5.5,1
			c0.8,2,1.8,3.9,2.3,5.9c0.7,2.6-1.2,6.3-4.5,6.5c-2.5,0.2-4.7,0-6.8-1.4c-2.3-1.5-3.8-3.7-5-6.2c-0.3-0.6-0.4-1.2-1.3-0.6
			c-4.4,2.7-6,9.8-3,14.1c0.8,1.1,1.6,2.1,2.5,3.2C180.5,135.3,181.5,137.5,181.6,140z M218.7,158.5c0.3-0.4,1.1-0.8,1.4-0.6
			c4.4,2.2,8.4,4.9,9.7,10c0.8,2.9,0.3,5.7-1.5,8.1c-1.6,2.1-1.7,2.1-3.4-0.5c0.6,3,0.4,3.2-2.2,2.5c-4-1-6-4-6.7-7.8
			C215.2,166,216.2,162,218.7,158.5z M184.4,132.6c2.2-4,9.4-7.4,13.9-6.5c2.5,0.5,4.4,1.8,5.8,3.9c1,1.5,0.7,2-1.1,2.2
			c-1.7,0.2-3.4,0.4-5,0.6c0,0.2,0,0.4,0,0.7c1.8-0.2,3.6-0.5,5.4-0.7c1.6-0.2,1.9,0.1,1.4,1.7c-0.9,2.9-5.3,5.6-9.1,5.3
			c-4.4-0.3-8-2.2-11-5.5C184.4,133.8,184.2,133,184.4,132.6z"/>
		<path class="st0" d="M351,216.4c-6.3,0.3-10.1,4.1-14.5,7.6C340.2,224.4,347.4,220.6,351,216.4z"/>
		<path class="st0" d="M158.5,190.9c-2.4-2.5-5-4.8-7.4-7.4c-0.8-0.9-1.4-1.3-2.3-0.5c-1.9,1.6-3.8,3.1-5.5,4.8
			c-0.3,0.3-0.3,1.3,0,1.8c0.8,1.5,2,2.9,2.8,4.4c1.6,2.9,3.4,3.8,6.7,2.9c1.8-0.5,3.6-1.2,5.5-1.5c1.1-0.2,1.5-0.6,1.4-1.8
			C159.3,192.7,159.1,191.6,158.5,190.9z"/>
		<path class="st0" d="M140.2,184.6c1.4-2.3,2.9-4.5,4.5-6.7c0.6-0.9,0.3-1.4-0.5-1.6c-1.5-0.4-3.1-1-4.6-0.8
			c-3.7,0.5-7.4,1.4-11.1,2.2c0,0.2,0,0.5-0.1,0.7c3.2,2.1,6.5,4.2,9.6,6.5C139.1,185.7,139.5,185.7,140.2,184.6z"/>
		<path class="st0" d="M138.8,193.6c-0.3,0.4-0.7,0.9-1.2,1.5c1.7-0.3,3.2-0.6,4.7-0.9C141,191,141,191,138.8,193.6z"/>
		<path class="st0" d="M160,181.2c-1-0.3-2.1-0.4-3.1-0.6c-0.1,0.2-0.2,0.4-0.3,0.6c0.8,0.7,1.6,1.5,2.4,2.1
			c0.4,0.3,1.2,0.7,1.3,0.6c0.4-0.5,0.9-1.2,0.9-1.8C161.3,181.9,160.5,181.4,160,181.2z"/>
		<path class="st0" d="M272.6,252c5.3-6,8.6-12.3,6.9-20.8C274.4,237.3,271.8,243.8,272.6,252z"/>
		<path class="st0" d="M273,203.9c0.8-1.9,1.7-3.8,2.5-5.6C273.5,199.6,272.5,201.4,273,203.9z"/>
		<path class="st0" d="M372.6,133.2c-1.1,0-2.2-0.4-3.2-0.8c-0.7-0.3-1.3-1-1.9-1.6c0.6-0.4,1.1-0.8,1.8-1.1
			c0.6-0.3,1.3-0.5,1.9-0.8c0.5-0.3,0.9-0.8,1.3-1.2c-0.1-0.2-0.3-0.3-0.4-0.5c-1.3,0.7-2.7,1.4-3.9,2.2c-1.1,0.7-1.7,0.2-1.7-0.9
			c-0.1-1.2,0-2.4,0.3-3.5c0.2-1,0.7-2,1-3.1c-0.2-0.1-0.3-0.3-0.5-0.4c-0.2,0.4-0.4,0.8-0.7,1.2c-2.2,3.1-2.2,7.7,0.3,11.1
			c1.7,2.3,3.9,4.3,5.9,6.4c0.2,0.2,1,0.3,1.4,0.1c1.3-0.8,1.5-2.1,0.9-3.5c-0.3-0.7-0.4-1.5-0.7-2.2c0,0,0,0,0,0
			C374.2,133.9,373.8,133.3,372.6,133.2z"/>
		<path class="st0" d="M138.6,170.6c-3.2-1.8-6.2-3.3-9.1-5c-3.7-2.1-5-5.1-3.9-9.4c0.1,5.5,3.4,8,8.2,9.7c3.8,1.4,7.4,3.5,11.1,5.4
			c1.3,0.6,2.4,1.6,3.7,2.1c0.8,0.3,1.9-0.1,2.9-0.4c0.1,0,0-1.3-0.2-1.9c-1.1-3.2-3.2-5.7-5.5-8.2c-5.5-5.9-13.1-8.7-20.2-13
			c-0.2,2.4-0.4,4.4-0.7,6.4c-0.1,1.3-0.1,2.7-0.4,4c-0.7,2.4-1.8,4.7-2.5,7.1c-1,3-0.1,5.6,2.3,7.7c0.7,0.7,1.3,0.9,2.3,0.4
			c2.2-1.1,4.4-2.1,6.7-3C134.8,171.9,136.6,171.4,138.6,170.6z"/>
		<path class="st0" d="M256.1,57.4c0.6,0.2,1.2,0.4,2.2,0.7c-1.3-1.8-2.3-3.1-3.3-4.5C253.4,56.4,253.4,56.4,256.1,57.4z"/>
		<path class="st0" d="M122.6,207.6c0.2,0.2,0.4,0.3,0.5,0.5c1.7,1.3,3.5,1.1,4.8-0.6c0.7-0.9,1.2-2,1.7-3.1
			c0.8-1.6,1.6-3.2,2.4-4.8c-4.1,1.5-8.2,3.1-12.7,4.8C120.6,205.6,121.6,206.6,122.6,207.6z"/>
		<path class="st0" d="M289.7,224.5c-1.8-0.5-3,0.7-4.2,1.7c-0.4,0.4-0.3,1.5-0.3,2.3c0.1,1.6,0.5,3.1,0.6,4.7
			c0.4,5.8-0.3,11.4-3.5,16.9c2.6-0.7,4.6-1.3,6.6-1.8c3.9-0.8,7.2-2.9,10.4-5c0.4-0.2,0.7-0.9,0.7-1.3c-0.7-4.8-1.6-9.6-4.6-13.5
			C294,226.6,292.2,225.1,289.7,224.5z"/>
		<path class="st0" d="M300.1,214.3c0.5,0,1-0.1,1.5-0.1c0-0.2,0-0.5,0-0.7c-6.7-0.3-13.3,0.3-19.6,2.8c-0.5,0.2-1.7,0.1-1.1,1.3
			c0.5,1,1.1,0.4,1.7,0.1C288.1,215,293.9,213.9,300.1,214.3z"/>
		<path class="st0" d="M293.5,222.7c5.1,4.7,7.6,10.6,8.1,17.4c0.1,1.6,0.5,1.7,1.9,0.6c4.7-3.4,9.4-6.7,14-10.1
			c1.4-1,2.6-2.1,4.1-3.3C305.6,221.2,297.9,220.8,293.5,222.7z"/>
		<path class="st0" d="M315.5,189.2c-0.4,2.9-0.9,5.7-1.4,9c2.2-2.8,4.1-5.3,6.2-8C318.4,189.8,316.9,189.5,315.5,189.2z"/>
		<path class="st0" d="M181.2,196.9c-0.5-0.4-1.3-0.6-1.9-0.6c-2.5,0-4.9,0.1-7.3,0.3c-2,0.1-4,0.4-6.5,0.7c1.9,1.8,3.3,3,4.6,4.4
			c4.4,4.7,9.8,7.6,16,9.3c3.3,0.9,6.6,1.8,9.6,3.2c2.3,1.1,4.1,0.4,5.9-0.2C194.7,208.2,188,202.5,181.2,196.9z"/>
		<path class="st0" d="M325.3,196.4c2.5,1,5.1,1.8,7.5,3.1c2.5,1.3,4.8,3.1,7.1,4.7c2.5,1.7,4.9,3.5,7.4,5.2
			c1.6,1.1,3.5,0.3,4.5-1.3c1.6-2.6,3.3-5.2,5.3-7.5c1.9-2.2,4.3-4.1,6.7-6.3c-2.8,0-4.8-1-5.8-3.5c-0.1-0.3-0.4-0.6-0.6-0.9
			c-0.3,0.4-0.9,0.7-1,1.2c-0.2,0.8,0.1,1.6-0.1,2.4c-0.4,2.2-0.5,4.4-1.3,6.5c-1.8,4.9-7.1,7.2-11.9,5.4c0.4-0.6,0.6-1.4,1.1-1.8
			c1.8-1.2,1.2-2.5,0.5-3.5c-0.5,1.1-1,2.5-1.6,3.8c-0.5,1.2-1.2,0.8-1.7,0c-1.2-1.9-1.4-4.1-0.7-6.2c0.7-2,1.7-3.8,2.6-5.7
			C339,189.2,330.2,190.4,325.3,196.4z"/>
		<path class="st0" d="M338.5,206.5c-3.1-1.8-6.2-3.4-9.5-4.9c-3-1.4-6.5-1.1-9.8,2.6c-2.7,3.1-5.6,6-9.4,7.9
			c-0.6,0.3-1.1,1-1.6,1.6c-0.7,1-0.6,1.6,0.8,2c6,1.5,11.7,3.9,17.2,6.7c1.1,0.6,1.8,0.4,2.7-0.3c1.5-1.3,3.1-2.4,4.8-3.5
			c3.7-2.5,7.5-5,11.3-7.5C342.9,209.5,340.8,207.8,338.5,206.5z"/>
		<path class="st0" d="M304.2,168.6c-2.9-0.3-5.1-1.7-6.7-4c-1.1-1.6-1.9-3.3-2.9-5.2c-1.6,3-2.5,6.1-3.1,9.3
			c-0.4,2.1,0,3.7,2.1,4.6c0.7,0.3,1.3,0.9,1.8,1.5c1.1,1.3,2.6,1.9,4.1,2.4c1.2,0.5,1.6,0.1,2.2-0.9c1.9-3.4,4.4-6.2,8-7.8
			c1.4-0.7,2.4-1.7,2.9-3.4c0.5-1.6,1.6-3.1,2.8-4.3c3.2-3.1,7.2-4.1,11.6-3.5c0.1-0.2,0.2-0.4,0.3-0.6c-1.3-0.8-2.5-1.7-3.9-2.4
			c-4-2.2-8-4.5-12.1-6.6c-2.2-1.1-4.5-1.8-7-1.9c2.6,2.3,5,4.7,6.5,7.9c2,4.4,1.2,9.9-2.1,13c-1.8,1.7-2.2,1.7-2.9-0.7
			c-0.3-0.9,0.1-2.1-0.2-3c-0.2-0.5-1.4-0.3-1.5-1.4c-0.1-1.2-0.7-2.3-0.9-3.4c-0.2-1-0.4-1.9-0.6-2.9c-0.2,0-0.4,0.1-0.7,0.1
			c0.1,0.7,0.1,1.4,0.3,2c1.4,3.1,1.4,6.6,3.1,9.6C306.2,168.4,305.4,168.7,304.2,168.6z"/>
		<path class="st0" d="M334.2,170.9c-1.8,1-3.4,2.3-5.3,3.1c-5.4,2.4-10.7,1.6-14.3-2.2c-0.8-0.8-1.2-1.9-1.8-2.9
			c1.2-0.4,2.4-0.8,3.6-1.1c0.5-0.1,1.2,0.3,1.6,0c2.1-1.4,4.4-2,6.9-1.3c0.2,0.1,0.6,0.1,0.7,0c1.2-1.5,3.1-0.8,4.8-1.8
			c-2.1,0.1-3.9,0-5.6,0.4c-3.8,0.9-7.8,1.4-11.5,2.6c-0.9,0.3-1.9,0.7-2.6,1.4c-1.7,1.5-2.8,3.4-3.3,5.6c-0.3,1.1-0.7,2.3-1.3,3.3
			c-0.7,1.2-1,2,0.6,2.5c0.4,0.1,0.8,0.5,1.2,0.7c4.5,2.4,9.2,4.3,14.4,4.6c1.1,0.1,1.9-0.1,2.7-1c1-1.1,2.2-2,3.3-3.1
			c0.5-0.5,0.9-1.1,1-1.7c0.4-2.1,1.2-3.9,2.7-5.4c1-1,1.7-2.3,2.5-3.4C334.3,171,334.3,170.9,334.2,170.9z"/>
		<path class="st0" d="M304.1,177.6c1-1.8,1.9-3.7,2.9-5.5c-0.2-0.1-0.3-0.2-0.5-0.2c-1.3,1.6-2.7,3.3-3,5.5
			C303.7,177.4,303.9,177.5,304.1,177.6z"/>
		<path class="st0" d="M287.6,191.7c-0.5,1-1.2,1.9-1.6,2.9c-1.3,3.2-2.6,6.4-4,9.9c0.9-0.1,1.3-0.2,1.7-0.2c1.8,0,2.7-0.5,1.9-2.5
			c-0.2-0.5,0-1.1,0.1-1.6c0.7-3.6,4.1-6.5,8.3-7.1c1.5-0.2,2.2,0.2,2.4,1.8c0.4,3.5,0,6.7-2.7,10c4-0.2,7.3-0.3,10.7-0.5
			c0-0.2,0-0.3,0-0.5c-0.7-0.4-1.4-0.8-2.2-1.1c0.8-1.1,1.5-2.2,2.3-3.5c-0.3-0.3-0.8-0.9-1.1-1.2c-0.5,1.1-1,2.4-1.7,3.7
			c-0.1,0.2-1,0.3-1.2,0.1c-0.4-0.4-0.7-1.1-0.9-1.7c-1.1-4.1-0.1-7.6,3.1-10.3c1.6-1.4,3.6-2.4,5.6-3.7c-1.2-0.4-2.2-0.7-3.2-1
			C299.6,183.8,291.4,185.1,287.6,191.7z"/>
		<path class="st0" d="M365,153.7c-0.4,0.3-1,0.7-1,1c-0.1,1.2,0,2.4-0.1,3.6c-0.2,4.4-4.4,9-8.5,9.2c-1.1,0.1-1.6-0.3-1.2-1.3
			c0.5-1.4,1.2-2.8,1.8-4c-1.8,0.3-2.5,1.6-2.5,3.5c0,0.2,0,0.4-0.1,0.4c-0.5,0.3-1.3,0.8-1.4,0.6c-1-1.1-1.7-0.3-2.3,0.4
			c-3.4,3.1-6.9,5.7-11.4,7.1c-1.7,0.6-3.6,1.3-4.4,3.8c3.6-1,7-2,10.3-2.9c7-1.9,13.4-4.9,18.5-10.1c1.2-1.2,2-2.4,1.9-4.3
			c-0.2-1.9,0.4-3.9,0.6-5.9C365.2,154.5,365,154.1,365,153.7z"/>
		<path class="st0" d="M265.1,489.4c-3.3,1.9-6.6,3.9-10.1,6c2.2,1.3,4.1,2.5,6,3.7c2.5,1.6,2.5,1.6,4.3-0.6
			c0.3-0.4,0.8-0.8,1.1-1.2c1.8-2.3,1.9-5,0.2-7.2C266.3,489.6,265.4,489.3,265.1,489.4z"/>
		<path class="st0" d="M257,436.4c0.2-0.5,0.2-1.2,0-1.6c-3.6-5.2-5.5-11-6.3-17.2c-0.2-1.7-0.4-1.8-1.8-0.8
			c-1.2,0.8-2.5,1.7-3.5,2.8c-1,1.1-2,2.5-2.6,3.9c-0.6,1.2-0.6,2.7-0.9,4c-0.3-2.4,0.1-4.6,1.5-6.6c1.3-1.9,2.7-3.8,4.4-5.2
			c2.6-2.1,2.9-4.6,2.3-7.5c-2.6,0.6-5.1,1.3-7.6,1.9c-4.7,1.1-6.8,3.6-7.1,8.5c-0.3,5.3,1,10.4,2.5,15.4c1.5,5.3,3.4,10.5,5.2,15.7
			C249.5,447.1,254.3,442.8,257,436.4z"/>
		<path class="st0" d="M247.5,494.2c-0.3,0.1-0.8,0-1,0.2c-3,2.6-3.2,6.8-0.6,9.9c1-1.8,1.9-3.6,2.9-5.4c0.5-1,1.2-1.8,1.9-2.8
			c-1-0.6-2-1.2-3-1.9C247.6,494.3,247.5,494.2,247.5,494.2z"/>
		<path class="st0" d="M272,438.7c0.8,0.7,1.5,0.6,1.5-0.7c0.1-2.4,0.5-4.9,0.3-7.3c-0.2-2.7-2.1-4.4-4.7-5
			c-1.8-0.4-3.6-0.9-5.6-1.5c-0.1,1.9-0.4,3.8-0.4,5.6c0,0.6,0.2,1.3,0.6,1.7C266.5,434,269.2,436.4,272,438.7z"/>
		<path class="st0" d="M226.4,384.8c-2.5-1-5-1.9-7.6-2.5c-2.6-0.6-5.3-0.7-7.9-1.1c0-0.2,0-0.4,0.1-0.6c4.7,0.4,9.4,0.9,14.1,1.4
			c-0.1-1.6,0-3.4-0.3-5.1c-0.3-1.6-0.9-3.2-1.4-4.8c0.8,0.6,1.6,1.3,1.9,2.2c0.5,1.6,0.8,3.2,0.9,4.9c0.1,2.3,1,3.8,3.1,4.9
			c1.6,0.8,3.2,1.9,4.4,3.1c1.1,1.1,1.7,1.2,2.8,0.1c6.6-6.3,10.4-13.9,11.3-22.9c0.1-1.2,0.3-2.5,0.5-4.2c-1,0.7-2,1-2.2,1.6
			c-1,2.8-3.2,4.3-5.4,5.8c-5.4,3.7-8.6,8.4-6.9,15.3c-0.1,0-0.1-0.1-0.3-0.1c-3.4-7.9,1.2-13.3,6.6-18.8
			c-6.6,1.5-12.5,3.1-18.3,5.3c-8.9,3.4-14.1,9.6-15.6,18.9c-0.5,2.9-0.6,5.8-0.9,8.7c-0.1,1.1-0.3,2.3-0.5,3.7
			c9.9-2.9,19.4-5.9,28.3-10.6C231.2,387.5,229,385.8,226.4,384.8z"/>
		<path class="st0" d="M202,382.3c-0.6,0-1.3-0.1-1.6-0.2c-5.8,0.1-9.9,2.4-12.2,7.5c-0.4,0.8-0.7,1.6-1.3,2.3
			c-0.7,0.8-0.5,1.4,0.1,2c3.5,3.7,7.5,6.3,12.6,6.9c1.3,0.2,1.8-0.2,1.9-1.6c0.4-5.2,0.9-10.4,1.5-15.6
			C203.2,382.7,203,382.3,202,382.3z"/>
		<path class="st0" d="M209.5,371.6c1.3-1.1,2.7-2.1,4.3-3.4c-3.9,0-7.5-0.1-11,0c-6,0.3-12,0.8-17.6,3.3c-3.8,1.7-7,4.3-9.7,7.4
			c-0.7,0.8-0.7,1.2,0.2,2.1c2.6,2.4,5.1,5,7.5,7.5c0.6,0.7,1.2,1.4,1.9,2.3c1.1-1.8,2.1-3.4,3-5c1.5-2.5,3.5-4.4,6.4-5
			c2.5-0.5,5.1-0.7,7.7-0.8c1.3-0.1,2-0.3,2.4-1.6C205.4,375.7,207.3,373.5,209.5,371.6z"/>
		<path class="st0" d="M247.7,396.3c1.7-1.8,1.8-3.8,1.1-6.3c-1.7,1.5-3.1,2.8-4.6,4c-5.1,4-10.6,7.2-16.8,9.3
			c-0.7,0.2-1.7,0.3-1.7,1.6c0.1,3.1,0,6.2,0,9.3c1.4-0.2,1.3-1.4,1.5-2.4c0.4-2.2,1.5-3.9,3.1-5.4c1.8-1.7,3.9-2.4,6.1-2.9
			C241.1,402.4,244.6,399.7,247.7,396.3z"/>
		<path class="st0" d="M266.3,463.6c1.7-5.4,3.3-10.7,4.9-15.9c0.9-2.8,0.9-2.8-1.8-4c-0.9-0.4-1.7-0.8-2.5-1.3
			c-0.7-0.4-1.1-0.4-1.5,0.4c-2.3,4.3-3.7,8.8-2.8,13.7C263.1,459.2,264.3,461.8,266.3,463.6z"/>
		<path class="st0" d="M267.9,392.6c2.1,2.1,4.3,4.2,6.4,6.2c0.1-0.1,0.2-0.2,0.4-0.4c-1.2-3-3.9-4.6-6.2-6.5
			C268.3,392.2,268.1,392.4,267.9,392.6z"/>
		<path class="st0" d="M299,394.1c-3.1-0.2-6.2,0-9.5,0c3,2.2,5.4,4.5,6.6,7.8c0.3,1,1,1,1.8,1c2.2,0.1,4.3,0.4,6.8,0.6
			c-0.2-1.4-0.5-2.9-0.6-4.3C303.6,394.4,303.6,394.3,299,394.1z"/>
		<path class="st0" d="M187.4,402.7c-4.7,3.9-7.7,4-13,1.1c-0.3-0.2-0.7-0.4-1-0.6c-2.6-1-5.1-2.1-7.7-3c-0.6-0.2-1.8,0.1-2.1,0.6
			c-2.8,4.4-5.7,8.7-8.1,13.3c-2.3,4.4-2.6,9.2-1.5,14.1c0.3,1.2,0.8,1.8,2.2,1.9c2,0.2,4.1,0.7,6.1,1.1c5.3,1.2,11.5-1.4,13.2-6
			c2.7-7.5,7.7-13,14.5-16.9c2.1-1.2,4.2-2.4,6.3-3.7c-1.7-0.8-3.5-1.3-4.8-2.4C189.7,400.9,188.8,401.5,187.4,402.7z"/>
		<path class="st0" d="M268.8,377.8c-0.1,0.5,0.1,1.4,0.5,1.7c4,3.2,8.1,6.1,13.4,6.7c2.6,0.3,5.2,0.4,7.8,0.9
			c4,0.8,7.6,0.5,10.8-2.4c0.1-0.1,0.1-0.1,0.2-0.1c0.8-0.6,1.9-0.8,1.7-2.2c-0.2-1.4-1.3-1.3-2.1-1.5c-9-3-17.3-7.3-24.8-13.2
			c-1.8-1.5-3.6-3-5.4-4.4C270.2,368.1,269.4,373,268.8,377.8z"/>
		<path class="st0" d="M313.7,411.7c0.6,2.8,2,5.1,3.2,7.6c3.3,6.9,8.5,12.2,15.8,15.5c-0.5-1.9-0.8-3.9-1.6-5.6
			c-1.2-2.6-3-5-4.3-7.6c-2.2-4.3-4.2-8.7-6.2-13.1c-1.6-3.5-4.4-5.5-8-6.6c-1.3-0.4-1.7-0.1-1.3,1.3
			C312.3,406,313,408.8,313.7,411.7z"/>
		<path class="st0" d="M330.5,438.2c-3.8-2.4-7.5-5-11.2-7.5c-1-0.7-1.3-0.5-2,0.4c-3,4.1-3.2,9.6-0.2,14c2.1,3.1,4.4,6,6.6,9
			c1.5-2.2,3.1-4.2,4.5-6.5c1.3-2.1,2.2-4.3,3.3-6.5C332.3,439.8,331.7,439,330.5,438.2z"/>
		<path class="st0" d="M337.2,439c2.2,1.2,4.5,1.2,6.9,0.5c-3-2.3-6-4.6-9.1-6.9C335.7,434.8,334.5,437.5,337.2,439z"/>
		<path class="st0" d="M346.1,375.8c-2.8-0.4-6-1-9.3-1.4c-2.1-0.3-4,0.3-5.6,2.1C336.6,378.3,341.6,377.3,346.1,375.8z"/>
		<path class="st0" d="M255.1,450.1c3.9,10.1,2.6,13.9-3.6,19.7c-0.1,0.1-0.2,0.2-0.3,0.3c-3.7,3.3-6,7.1-4.1,12.4
			c-2.5-3.7-1.7-8.4,0.1-10.8c1.1-1.5,2.2-3,3.5-4.2c5-4.2,4.8-11.4,2.3-16.4c-0.6-1.2-1.2-1.2-2.2-0.7c-1.8,0.9-3.6,1.7-5.4,2.4
			c-1.1,0.4-1.2,1.1-0.9,2c1.8,6.5,1.4,13-0.7,19.4c-0.9,2.6-1.2,5.4-0.5,8.2c1.4,5.1,4.8,8.7,9,11.5c0.4,0.3,1.3,0.2,1.8-0.1
			c2.5-1.4,4.9-3,7.3-4.5c4.9-3.1,8.5-8.5,6.9-14.7c-1-3.9-2.1-7.5-5.4-10.4c-3.6-3.2-5-7.7-3.8-12.6c0.8-3.4,2.1-6.8,3.1-10.2
			c0.2-0.6-0.1-1.2-0.2-1.9c-0.5,0.4-1.1,0.6-1.4,1.1c-1.7,2.2-3.1,4.6-4.9,6.6C254.7,448.4,254.7,448.9,255.1,450.1z"/>
		<path class="st0" d="M274,479.5c-0.3-2.3-0.9-4.4-2.6-6.1c-0.2,0.1-0.3,0.1-0.5,0.2c0.8,2,1.6,4.1,2.5,6.1
			C273.5,479.6,273.7,479.5,274,479.5z"/>
		<path class="st0" d="M281.1,187c-2,0.3-3.8,0.5-5.4,0.9c-0.6,0.1-1.3,0.6-1.5,1.2c-0.9,2.2-1.7,4.5-2.6,6.8
			c1.8-1.2,3.3-2.7,5.1-3.3C279.4,191.6,280,189.4,281.1,187z"/>
		<path class="st0" d="M208.5,434.4c-4.8-0.1-9.5,1.8-11.9,6.4c-1.1,2.1-1.8,4.4-2.7,6.7c1.2,0.2,2.2,0.6,3.2,0.5
			c1.4,0,3,0.1,4.1-0.6c2.7-1.7,5.1-3.7,7.6-5.7c0.4-0.3,0.7-1,0.8-1.6c0.1-1.5,0-3,0.1-4.5C209.7,434.8,209.5,434.4,208.5,434.4z"
			/>
		<path class="st0" d="M268.2,201.6c-2.6,3.1-0.7,6.5-1,10.2c1.2-0.7,2-1.1,1.5-2.3C267.5,207,267.6,204.4,268.2,201.6z"/>
		<path class="st0" d="M206.7,216.7c-2.1-1.6-4.3-1.7-7-0.8c1.3,1.2,2.6,2,3.6,3.1c1.1,1.1,2.1,2,3.8,1.6c1.4-0.4,2.9-0.1,4.2-1.2
			C209.7,218.4,208.1,217.7,206.7,216.7z"/>
		<path class="st0" d="M251.5,164c0,0.8,0,1.2,0.1,1.5c0.9,3.3,0.2,6.3-1.7,9c-1.2,1.8-2.5,3.7-3.8,5.5c-0.6,0.9-0.9,1.7-0.5,2.8
			c1,2.7,1.7,5.5,2.8,8c1.2,2.6,2.8,5,4.3,7.4c0.2-0.1,0.3-0.2,0.5-0.2c0.1-2.6,0.1-5.3,0.5-7.9c0.9-6.5,1.3-12.9,0.6-19.4
			C254.1,168.4,253.2,166.2,251.5,164z"/>
		<path class="st0" d="M243.5,205.5c-1.3-2.6-3-4.9-4.5-7.4c-0.2,0.1-0.4,0.2-0.7,0.2c-1.6,6.9,0.5,12.9,4.2,18.6
			c0.6,0.9,1.1,1.8,1.9,2.4c0.6,0.4,1.6,0.3,2.4,0.5c0-0.6,0.1-1.2,0.1-1.8C246.5,213.6,245.5,209.4,243.5,205.5z"/>
		<path class="st0" d="M166.6,436c-0.7,2.7-1.7,5.3-4.6,6.6c1.6,2.5,3.2,5,4.8,7.6c1.9-6,3.7-11.7,5.4-17.3
			c-1.3,0.4-2.4,0.9-3.5,1.1C167.5,434.2,166.9,434.7,166.6,436z"/>
		<path class="st0" d="M210.8,429.5c0.4-1.2,0.9-2.3,1.6-3.9c-1.9,2.3-3.6,4.3-5.4,6.4C210,432.1,210,432.1,210.8,429.5z"/>
		<path class="st0" d="M267.4,161.3c-1.5-0.5-3.3-0.7-4.7-1.5c-3.4-2-4.6-5.3-4.7-9c0-1.4-0.2-2.1-1.9-2c-2,0.1-2.2-0.4-1.4-2.3
			c0.3-0.6,0.6-1.5,1.2-1.7c1.5-0.6-0.2-1.8,0.5-2.4c-0.1-0.1-0.4-0.2-0.4-0.2c-1.4,1.9-0.7-1.1-1.5-0.6c0.2,2.3,0.1,4.4-1.6,6.3
			c-1.6-1-2.5-2.4-2.9-4.2c-0.9-3.9-0.1-7.5,2.4-10.7c-0.1-0.1-0.3-0.3-0.4-0.4c-1.8,0.6-3.6,1.1-5.3,1.8c-0.3,0.1-0.5,1.1-0.4,1.5
			c2.2,6.8,4.5,13.5,8.2,19.7c1.8,2.9,3.9,5.4,6.9,7C264.1,163.9,266,163.5,267.4,161.3z"/>
		<path class="st0" d="M234.9,228.6c-5.7-2-11.4-4.3-17.1-6.3c-0.6-0.2-1.4-0.1-2,0.1c-2.1,0.6-4.1,1.3-6.1,1.9
			c-1.1,0.3-1.4,0.6-0.7,1.6c1.2,1.5,2.3,3,3.5,4.5c4.2,5.3,9.8,7.6,16.5,7.2c3.9-0.3,7.9-0.5,12.2-0.8c-0.3-0.7-0.8-1.6-0.9-2.5
			C239.8,231,237.7,229.6,234.9,228.6z"/>
		<path class="st0" d="M278.5,441.8c3.6,1.5,7.1,2.9,11.1,4.5c-0.2-1-0.2-1.7-0.4-2.4c-1.4-4.6-3.6-8.6-7.9-11.1
			c-0.8-0.5-1.4-0.7-1.7,0.5c-0.5,2.4-1.2,4.8-1.7,7.1C277.9,440.9,278.2,441.6,278.5,441.8z"/>
		<path class="st0" d="M185.3,401.9c2.8-1.9,2.8-2,0.8-4.5c-0.1-0.1-0.2-0.3-0.3-0.4c-0.8-1.3-1.6-1.6-2.9-0.4
			c-2.8,2.5-6.1,3.9-10.6,3.2c4.6-0.1,7.8-1.8,10.1-5.1c0.3-0.4,0.5-1.3,0.2-1.6c-2.8-3.5-5.7-6.9-8.6-10.4
			c-0.6-0.7-1.1-0.7-1.6,0.2c-2.7,5.3-5.3,10.5-8.2,16.2c4.7-0.1,8.2,1.5,11.7,3.6C179.1,404.5,182.4,403.9,185.3,401.9z"/>
		<path class="st0" d="M164.6,438.2c0.5-0.9,0.8-1.9,1-2.9c0.1-0.4-0.3-1.2-0.6-1.2c-2.9-0.7-5.9-1.3-9.3-2.1c0,0.4-0.3,0.9-0.1,1.2
			c1.1,1.9,2.1,3.7,3.3,5.5C161.3,442,162.6,441.9,164.6,438.2z"/>
		<path class="st0" d="M213.8,435.4c0.2,0.1,0.5,0.2,0.7,0.3c1.3-3,2.6-6,3.9-9.1c-0.2-0.1-0.4-0.2-0.6-0.2
			C215.8,429.1,214.6,432.1,213.8,435.4z"/>
		<path class="st0" d="M213.8,441.6c-0.4,0.5-0.7,1.2-0.7,1.8c-0.1,4.1,0,8.2,0,12.2c0.4-0.5,1.1-1.1,1.6-1.8
			c3-3.7,3.5-8.7,1.3-11.9C215.3,440.9,214.6,440.6,213.8,441.6z"/>
		<path class="st1" d="M489.1,328.3H31c0.8,0.5,1.7,0.6,2.6,0.6c8.9,0.3,17.8,0.7,26.7,0.8c35.6,0.4,71.1,0.7,106.7,1
			c8.3,0.1,16.5,0.1,24.8,0.1c16.9,0,33.8,0.1,50.7,0.1c4.5,0,4.4,0,4.4,4.5c0.1,5.1-1.1,9.6-5.2,12.9c-0.7,0.6-1.4,1.3-2.1,1.9
			c-5.2,4.4-10.9,7.5-17.9,8.1c-5.4,0.4-10.8,0.9-16.1,1.5c-1.3,0.2-2.2,0-3.3-0.7c-7.6-4.9-15.7-8.6-24.5-10.7
			c-4.9-1.1-9.9-1.7-14.8-0.3c-1.9,0.5-2.7,0-3.6-1.7c-1.9-3.5-4.6-6.1-8.9-6c-0.4,0-0.8-0.1-1.2,0c-2.1,0.3-4.2,0.5-6.4,0.9
			c-5,0.9-10,2.1-14.5-1.7c2.1,3.1,5.2,4.2,8.7,4.1c3.1-0.1,6.1-0.6,9.2-1.2c6.3-1.3,9.9,2.4,11.5,5.9c0.4,0.9,0.4,1.4-0.6,1.9
			c-1.5,0.8-2.9,1.6-4.3,2.5c-6,3.4-11.9,7-18,10.1c-4.3,2.2-8.9,3.4-13.8,2.5c-1.5-0.3-2.9-0.9-4.3-1.4c7.8,5.2,15.4,2.1,23.5-0.7
			c-2.2,5.1-2.8,10.5-8.3,13.4c2.1-0.1,3.7-1,4.6-2.5c1.6-2.6,2.8-5.4,4.3-8.1c0.8-1.5,1.4-3.5,2.7-4.3c3.9-2.5,7.9-4.7,12.1-6.5
			c8.4-3.7,16.9-2.4,25.4,0c1.4,0.4,1.2,1,0.5,1.9c-2.1,2.6-5,3.9-8.3,4.1c-5.2,0.4-10.1,1.8-14.3,5.2c-1.7,1.3-2.6,3.1-2.8,5.2
			c1.6-3.5,4.4-5.5,8.1-6.3c4.1-0.9,8.2-1.9,12.3-2.8c3.1-0.7,6.1-1.8,7.9-4.8c0.2-0.3,1.2-0.6,1.5-0.4c2.7,1.2,5.4,2.5,8.6,4.1
			c-3.4,1-6.2,1.7-9,2.6c-7,2.2-13.2,5.8-17.5,12c-0.6,0.8-1.2,1-2.2,1c-1.5,0-2.9,0.2-4.4,0.4c0,0.2,0,0.3,0,0.5c1.1,0,2.2,0,3.2,0
			c1.4,0,1.8,0.4,1.2,1.8c-1.5,3.4-2.7,6.9-4.2,10.3c-4.5,10.1-10,19.6-17.5,27.8c-1.8,1.9-3.5,2.3-5.6,1.5
			c-1.1-0.4-2.1-1.1-3.1-1.7c-2.3-1.2-4.5-2.7-6.9-3.6c-2.8-1-5.7-1-8.3,0.8c2.6-0.8,5.2-0.5,7.4,0.7c4,2.1,7.7,4.5,11.7,6.8
			c-4,3.5-8.3,6.2-13.3,7.8c-5,1.6-10,1.5-15,0.3c4,2.2,8.2,3,12.6,2.4c6.1-0.8,11.6-3.1,16.7-6.5c3.2-2.2,6.3-4.5,9.5-6.8
			c0,2.9-0.3,5.9,0.1,8.7c0.2,1.9,0.5,3.3-1.8,3.9c-0.7,0.2-1.3,1-1.9,1.5c0.9-0.1,1.5-0.6,2.2-0.8c0.8-0.3,2.3-0.7,2.5-0.3
			c0.8,1.1-0.6,1.6-1.2,2.1c-4.6,4.2-6.3,9.2-4.2,15.2c0.2,0.7,0.4,1.4,0.6,2.1c1.3,4.4,2.2,8.9,0.2,13.4c1.7-2.1,2.7-4.6,2.5-7.2
			c-0.3-3.1-0.8-6.1-1.6-9.1c-1.3-5.2,0.2-9.4,4-12.9c0.8-0.8,1.5-0.9,2.2,0.3c1.3,2.1,2.8,4,4.2,5.9c-1.4,1.1-2.7,2.1-4,3.2
			c1.3-0.2,2.4-0.7,3.4-1.2c1.3-0.6,2.2-0.4,3,0.9c1.2,1.9,2.5,3.9,4,5.6c2.6,2.8,2.1,5.7,0.6,8.8c-0.9,1.8-1.9,3.5-2.8,5.3
			c2.7-2.1,3.9-5.1,5.5-8.3c2.3,5,2.9,9.8,1,14.8c0.6-1,1.1-2,1.4-3.1c1.2-4.3,0.9-8.6-0.7-12.6c-1-2.4-0.2-4.2,0.9-6.5
			c2.6,4.7,7,8.1,6.5,13.9c0.2-1.7,0.4-3.3,0.2-4.9c-0.4-2.6-1.9-4.8-3.6-6.9c-1.6-2-2.4-4.4-1.4-6.9c3-8,6.7-15.6,12.2-22.2
			c3.9-4.7,8.8-8,14.8-10.6c-1.6,3.5-4.1,5.5-6.9,7.6c0.5,0.1,0.6,0.1,0.8,0.1c0.2-0.1,0.4-0.2,0.6-0.3c3.1-1.7,5.6-4.1,7.5-7.1
			c0.6-0.9,1.4-1.8,2.3-2.1c5.4-2.2,11-3.5,16.7-4.4c1.1-0.2,1.7,0,1.6,1.2c-0.2,3-0.3,6-0.5,9c0,0.4-0.5,1.2-0.8,1.2
			c-4,0.3-5.7,3.4-7.8,6.1c-2,2.6-3.9,5.2-6,7.7c-1.5,1.8-3.5,3-5.9,3.1c-0.3,0-0.7,0-0.8,0.2c-1.6,2.3-3.4,4.6-4.8,7
			c-0.9,1.5-1.5,3.2-2,4.8c-0.5,1.4-1.3,2.3-2.9,2.7c-1.1,0.3-2,1.2-3.1,1.8c0.1,0.1,0.1,0.1,0.2,0.2c1.1-0.4,2.3-0.9,3.4-1.3
			c0.1,0.2,0.1,0.4,0.2,0.5c-1.5,2.5-3.5,4.4-6.1,5.7c0.7,0,1.3-0.1,1.8-0.3c2.5-1,4.4-2.7,6.1-4.8c0.4-0.5,1.1-1.1,1.6-1.1
			c1.6,0,3.1,0.4,4.9,0.6c-8.7,9.4-10.3,12.8-9.2,19c-0.1-4.4,1.5-8,4.2-11.2c3.2-3.8,7.2-6.7,11.2-9.5c1.5-1.1,3.1-2,4.8-3.1
			c0,4.3,0.2,8.3,0,12.3c-0.5,7.2-2.5,13.8-8.9,18.1c0.4,0,0.8,0,1.1-0.2c1.3-1,2.7-1.9,3.9-3.1c1.2-1.2,1.9-3,3.2-4.1
			c1.3-1.1,1.5-2.4,1.9-3.9c0.3-1.1,0.7-2.3,1.3-3.3c1.4-2.2,2.9-4.4,4.4-6.5c1.9-2.7,3.4-5.4,2.7-8.8c-0.4-1.7-1.1-3.3-1.7-4.9
			c-0.3-0.8-0.7-1.3,0-2.1c3.3-3.8,5.1-8.3,6.2-13.2c0.4-1.5,0.6-3.1,1.1-4.6c0.3-0.6,1.2-1,1.9-1.5c0.3,0.5,0.6,1,0.8,1.5
			c0.3,1.1,0.4,2.2,0.8,3.2c2.7,8.1,5.4,16.2,8.1,24.3c1.3,3.8,1.3,3.8-2.2,5.8c-4.6,2.7-8.9,5.8-11.8,10.4c-1.7,2.7-3,5.5-3,9.2
			c0.5-0.6,0.7-0.8,0.8-1.1c1.5-6.1,5.6-9.9,10.7-13c1.2-0.7,1.8-0.5,2.7,0.2c0.3-0.3,0.6-0.7,0.8-1c0.6-0.7,1.1-1.5,1.9-2
			c2-1.3,2.5-1.2,2.9,1.3c0.5,3.5,1,7.1,1.1,10.6c0.1,4.5-1.3,8.8-3.8,12.6c-4.4,6.8-10.9,10.5-18.4,12.6c-4.9,1.4-10,2-15,3
			c3.5,0,7.1-0.1,10.6-0.5c3.5-0.5,6.9-1.4,10.4-2.1c0,1.9,0,3.7,0,5.5c-0.1,3.3-0.2,6.5-2.9,9c1.2-0.7,2.3-1.5,3-2.5
			c1.7-2.4,1.9-5.1,1.7-8c-0.3-3,1-5.2,3.7-6.5c3.2-1.5,5.8-3.8,8.1-6.5c0.5-0.6,1.1-1.2,1.8-2.1c0.7,3.6,2.1,6.3,4.5,8.4
			c1.2,1,1.1,1.5,0.2,2.8c-3.2,4.4-2.9,7.7,0.6,11.8c0.7,0.8,1.3,1.6,2,2.4c2.3,2.8,4.5,5.6,4,9.6c1.1-1.6,1.1-3.3,0.5-5
			c-0.7-1.8-1.7-3.6-2.8-5.2c-1.9-2.7-2.1-3.6-0.2-6.3c0.9-1.3,2.2-2.3,3.2-3.5c0.7-0.8,1.5-0.7,2.3-0.2c1.6,0.9,3.2,1.8,4.8,2.6
			c2.4,1.3,5,2.3,4.1,5.9c0.3-0.9,0.6-1.8,1-2.9c5.3,3.8,10.4,7.3,10.2,14.5c0.2-1.4,0.4-2.8,0.2-4.1c-0.8-4.3-3.5-7.4-6.7-10.1
			c-2.7-2.3-2.8-2.4-0.7-4.9c2.8-3.3,3.5-6.5,0.8-10.1c-0.2-0.2-0.1-0.9,0-1.2c1.3-2.1,2.7-4.1,4.1-6.2c1,1,2.3,2.1,1.5,4.1
			c0.7-0.6,1.2-1.3,2-0.4c0.4,0.4,0.8,0.8,1.3,1c3.7,1.7,4.9,4.4,4.5,8.4c-0.3,2.5,0.8,3.8,2.8,5c-2-3.3-1.4-6.8-1.6-10.4
			c4.7,1.1,9,2.6,14.1,1.8c-1.9-0.3-3.4-0.5-4.9-0.7c-5.7-1-11-3.1-15.2-7.2c-0.5-0.5-1.1-1.5-1-2.2c0.7-4.5-0.8-8.2-3.6-11.7
			c-0.5-0.6-0.9-1.7-0.8-2.5c0.5-6.6,2.7-12.8,4.8-19c0.3-0.9,0.7-1.1,1.5-0.7c3.7,1.5,7.3,3,11,4.4c1.1,0.4,1.5,1.1,1.6,2.3
			c0.3,2.7-0.6,5.2-1.2,7.7c-0.3,1.2-0.8,2.5,0.4,3.8c0.4-1.3,0.7-2.4,1.1-3.5c1.1,3.3,1.7,6.5,4.2,9c0-0.7-0.2-1.3-0.3-1.9
			c-1.1-4.4-2.6-8.8-0.8-13.4c0.6-1.4,1.2-1.2,2.1-0.7c2.2,1.3,4.4,2.6,6.4,4.1c6,4.5,9.9,10.2,10.2,18c0,0.3,0.2,0.7,0.3,1
			c0.6-4,0.2-7.8-1.4-11.5c-2.5-5.9-6.8-10.3-11.9-14c-1.8-1.3-3.7-2.4-5.6-3.6c-0.8-0.5-1.6-3.2-0.9-3.8c0.5-0.5,1.7-0.7,2.5-0.6
			c3.6,0.5,5.9,2.5,7.3,6c1,2.5,2.4,4.8,3.8,7.1c0.4,0.7,1.3,1.1,1.8,1.4c-1.5-3.2-3.2-6.5-4.5-9.8c-1.6-3.8-4.2-6-8.3-6.5
			c-0.6-0.1-1.3,0-1.9-0.3c-0.6-0.2-1.3-0.7-1.4-1.2c-1.4-5.5-5.4-8.8-9.9-11.6c-0.7-0.4-1.6-1.2-1.7-1.9c-0.8-3.8-3.2-5.8-6.8-6.8
			c-1.7-0.5-3.4-1.3-4.8-2.4c-5.7-4.4-7.5-11-9.1-17.6c-0.1-0.3,0-0.6,0.2-0.9c1.5-2.4,3.1-4.8,4.4-6.8c1.4,1.3,2.7,2.7,4.2,3.8
			c1.7,1.3,3.5,2.5,5.3,3.6c1.4,0.8,2.4,1.8,2.2,3.1c0.6,0.1,1.4,0,1.5,0.2c1.1,1.9,2.1,3.9,3,5.9c0.3,0.7,0.4,1.5,0.5,2.2
			c0.3-2.6-0.3-5-1.7-7c-1.6-2.3-2.8-4.7-3.6-7.4c-0.3-1.1-1.1-2.1-1.8-3c-0.8-1.1-1.7-2.1-2.5-3.2c0.1-0.1,0.2-0.3,0.3-0.4
			c3.9,1.3,7.8,2.8,11.8,4c5,1.6,8.2,4.9,10.3,9.5c1.5,3.3,1.6,6.9,1.9,10.5c0.5,4.7,1.6,9.2,4.2,13.2c1.2,1.8,2.5,3.3,4.7,4.1
			c-2.7-2.6-4.7-5.6-5.3-9.3c-0.8-5.6-1.3-11.3-1.9-17c0-0.3,0.2-0.8,0.5-0.9c2.6-1.4,7.6,1,8.3,3.9c1.7,6.8,4.3,13.1,9,18.4
			c0.9,1,0.7,1.5,0.2,2.5c-4.2,7.3-3.9,11.2,0.5,17.1c2,2.7,3.9,5.4,5.9,8.1c1,1.3,1.3,2.6,0.5,4.2c-0.4,0.9-0.8,1.9-1,2.9
			c-0.6,2.9-0.7,5.7,0.4,8.6c-0.7-4,0.2-7.7,2-11.2c0.3,0,0.6,0,0.8,0.1c0.2,2.6,0.4,5.1,0.6,7.5c0.1-0.2,0.4-0.6,0.5-1
			c0.8-2.4,0.5-4.8-0.1-7.3c-0.2-0.8-0.4-1.9,0-2.4c2.6-3.8,5.3-7.6,8-11.5c3.5,3,4.9,6.3,3.6,10.5c-0.3,1.1-0.6,2.3-0.8,3.5
			c-0.4,2.7-0.4,5.3,1,7.8c-0.9-3.5-0.1-6.8,0.9-10c1.5-4.8,0.8-8.9-3.1-12.3c-0.8-0.7-1.2-1.5-0.4-2.2c0.3-0.3,1.4,0.1,1.9,0.4
			c2.6,1.9,5.3,3.8,7.7,5.9c5.9,5.2,10.6,11.2,10,19.8c1.5-4.7,0.1-8.9-2-13c-2.2-4.2-5.3-7.7-8.8-10.8c-0.7-0.7-1.4-1.3-2.4-2.3
			c3.8-0.6,7-0.8,10.3,0.3c4,1.3,8,1.2,12-1.5c-1.4,0.3-2.3,0.7-3.3,0.8c-1.2,0.1-2.5,0-3.7-0.3c-1.8-0.4-3.6-1.5-5.4-1.6
			c-3.6-0.2-5.7-2.7-8.6-4.8c4.9-1.8,7.9-6.9,13.7-5.7c-1.9-1.3-4-1.3-5.9-0.4c-1.6,0.7-3.1,1.6-4.5,2.6c-2.7,1.8-5,2.8-7.2-0.7
			c-1.6-2.5-3.4-4.7-5.1-7.2c-0.8-1.1-1.4-2.3-2-3.5c3.1,1.3,5.9,2.3,9,1.1c-1.6-0.3-3.2-0.4-4.6-1c-3.5-1.5-6.4-3.9-8-7.4
			c-1.3-2.8-2.2-5.8-3.5-8.6c-0.9-2-1.9-4-3.2-5.8c-2.4-3.3-5.8-5.3-9.6-6.8c-1.3-0.5-1.7-1.2-1.7-2.5c0.1-1,0-2,0-3.2
			c3.3,3.1,4.5,3.8,7.8,4.4c4.4,0.8,9,1.2,12.6,4.6c-0.5-1-1.1-1.8-1.8-2.4c-2.5-2.2-5.7-3.1-8.9-3.5c-3-0.4-5.5-1.4-7.4-4.5
			c1.8-0.1,3.4-0.5,4.9-0.3c6.6,0.9,12.9,3,19.3,5c3.5,1.1,6,2.7,6.8,6.6c0.4,1.9,1.8,3.5,3.8,4.4c-1.9-2.2-3.2-4.8-3.8-7.6
			c0.2-0.1,0.3-0.2,0.4-0.2c0.2,0.1,0.5,0.1,0.7,0.2c7.6,3.7,14.5,8.1,19.9,14.8c6.2,7.6,10.6,16.3,14.8,25.1
			c2.3,4.9,1.4,8.7-1.8,12.7c-1.8,2.2-3.1,4.8-4.1,7.4c-1.1,2.8-0.9,5.9,0.7,8.6c-1.1-3.6-0.3-6.9,1.7-10c2.2-3.4,4.6-6.6,7-10
			c1.7,4.4,3.1,8.7,5,12.9c2.2,4.9,6.4,10,8.8,10.4c-4.3-4.1-7-8.9-8.4-14.5c-2.4-9.8-5.2-19.4-9-28.8c-0.1-0.4,0-0.8,0-1.2
			c1.8,0.6,3.4,1.5,5,1.7c1.8,0.2,2.4,0.9,2.7,2.5c1.2,5.4,4.3,8.8,10,9.8c3.6,0.6,7.1,1.9,9.7,4.8c-1.9-3.8-5.2-5.8-9.1-6.4
			c-5.2-0.9-7.8-4-9.1-8.8c-0.3-1.2-0.2-1.7,1.1-1.9c3.8-0.7,7.6-1.5,11.4-2.3c6-1.3,11.8-1,16.5,3.7c-2.1-3.1-5-5-8.6-5.8
			c-5.2-1.2-10.4-0.6-15.5,0.7c-3.9,1-7.6,0.7-11.2-0.9c-3.5-1.6-6.5-3.8-8-7.7c-1.2-2.9-2.7-5.8-4.4-8.4
			c-4.5-6.6-10.9-10.9-17.8-14.6c-2.2-1.2-4.4-2.3-6.4-3.3c3-1.6,5.8-3,8.6-4.6c0.8-0.5,1.2-0.2,1.8,0.3c1.2,1,2.4,2,3.8,2.9
			c4.3,2.8,8.8,3.8,13.7,1.3c2.5-1.3,5.1-2.6,7.7-3.8c4.4-2,8.9-3.6,13.7-1.2c0.1,0,0.2-0.1,0.9-0.4c-2.1-0.7-3.7-1.5-5.4-1.8
			c-5.4-1-10.2,0.8-14.7,3.5c-5.9,3.5-12,2.9-17-1.8c-1.1-1-1.3-1.6-0.2-2.8c3-3.4,5.7-7,8.7-10.4c3.3-3.8,6.7-7.7,10.4-11.1
			c4.6-4.3,10-6.7,16.5-6c0.3,0,0.7,0,1.1,0c0-0.2,0-0.3,0.1-0.5c-1.6-0.2-3.2-0.7-4.8-0.7c-6.6-0.1-12.1,2.9-17.1,6.8
			c-4.9,3.8-8.9,8.6-12.8,13.4c-3.3,4-6.3,8.4-12.4,8.3c-1,0-2.1,0.3-3.1,0.2c-2.1-0.2-4.2-0.6-6.3-1c-2.9-0.5-5.7-0.5-7.9,2
			c-0.4,0.4-1.4,0.5-2.1,0.4c-4.3-1.2-8.7-2.4-12.9-3.9c-6.8-2.5-13.6-5.2-20.4-7.9c-1.6-0.6-1.7-1.1-0.4-2.1c2-1.6,4-3.1,6.2-4.4
			c6.2-3.5,13.1-4.8,20.1-5.3c1.1-0.1,2.3-0.1,3.4-0.2c0-0.2,0-0.3,0-0.5c-0.5,0-1.1-0.1-1.6-0.1c-5.5-0.3-10.9,0.2-16.3,1.6
			c-1.5,0.4-1.8,0.1-1.6-1.4c0.3-1.7,0.2-3.5,0.4-5.2c0.4-3.2,0.9-6.3,4.3-7.8c-2.6,0.4-4.4,1.9-5.2,4.3c-0.6,2-0.9,4.2-1,6.3
			c-0.2,2.4-0.8,4.3-3,5.6c-3.3,2-6.6,4-10,6.2c-3.7-2.8-7.1-6.5-9.9-10.8c-3.4-5.1-6.4-10.4-6.3-16.9c0-1.6,0.4-2,1.9-2
			c26.2-0.1,52.4-0.3,78.6-0.4c5.9,0,11.9,0.1,17.8,0c21-0.1,41.9-0.2,62.9-0.5c17.2-0.2,34.5-0.7,51.7-1.1c1,0,1.9-0.1,2.9-0.2
			C489.2,328.6,489.2,328.5,489.1,328.3z M209.6,440.2c0,0.6-0.3,1.3-0.8,1.6c-2.5,2-4.9,4-7.6,5.7c-1.1,0.7-2.7,0.6-4.1,0.6
			c-1,0-2-0.3-3.2-0.5c0.9-2.4,1.7-4.6,2.7-6.7c2.3-4.5,7.1-6.5,11.9-6.4c1,0,1.2,0.5,1.2,1.3C209.7,437.2,209.7,438.7,209.6,440.2z
			 M210.8,429.5c-0.8,2.6-0.8,2.6-3.9,2.4c1.8-2.1,3.5-4.1,5.4-6.4C211.7,427.1,211.2,428.3,210.8,429.5z M214.6,453.9
			c-0.5,0.7-1.2,1.3-1.6,1.8c0-4,0-8.1,0-12.2c0-0.6,0.3-1.3,0.7-1.8c0.8-1,1.5-0.7,2.2,0.3C218.1,445.2,217.6,450.2,214.6,453.9z
			 M214.5,435.7c-0.2-0.1-0.5-0.2-0.7-0.3c0.8-3.3,2-6.3,4.1-9c0.2,0.1,0.4,0.2,0.6,0.2C217.2,429.6,215.8,432.7,214.5,435.7z
			 M271.4,473.4c1.7,1.7,2.3,3.8,2.6,6.1c-0.2,0.1-0.4,0.1-0.6,0.2c-0.8-2-1.6-4.1-2.5-6.1C271,473.5,271.2,473.4,271.4,473.4z
			 M279.7,433.4c0.3-1.3,0.8-1,1.7-0.5c4.4,2.5,6.5,6.5,7.9,11.1c0.2,0.7,0.2,1.4,0.4,2.4c-4-1.6-7.6-3-11.1-4.5
			c-0.3-0.1-0.6-0.9-0.6-1.2C278.5,438.1,279.1,435.8,279.7,433.4z M172.5,382.8c0.4-0.9,1-0.9,1.6-0.2c2.9,3.4,5.8,6.9,8.6,10.4
			c0.2,0.3,0,1.2-0.2,1.6c-2.3,3.4-5.5,5-10.1,5.1c4.5,0.7,7.8-0.7,10.6-3.2c1.3-1.2,2.1-0.9,2.9,0.4c0.1,0.1,0.2,0.3,0.3,0.4
			c2,2.6,2,2.6-0.8,4.5c-3,2.1-6.2,2.6-9.4,0.7c-3.5-2-6.9-3.7-11.7-3.6C167.1,393.4,169.8,388.1,172.5,382.8z M158.9,438.7
			c-1.2-1.7-2.3-3.6-3.3-5.5c-0.2-0.3,0.1-0.8,0.1-1.2c3.4,0.7,6.3,1.3,9.3,2.1c0.3,0.1,0.7,0.9,0.6,1.2c-0.2,1-0.5,2-1,2.9
			C162.6,441.9,161.3,442,158.9,438.7z M166.8,450.2c-1.6-2.6-3.2-5-4.8-7.6c2.8-1.3,3.9-3.8,4.6-6.6c0.3-1.3,0.9-1.8,2.1-2.1
			c1.1-0.2,2.2-0.7,3.5-1.1C170.4,438.5,168.7,444.2,166.8,450.2z M189.9,408.4c-6.8,3.9-11.8,9.4-14.5,16.9
			c-1.7,4.6-7.9,7.3-13.2,6c-2-0.5-4-1-6.1-1.1c-1.4-0.1-1.9-0.7-2.2-1.9c-1.1-4.9-0.8-9.7,1.5-14.1c2.4-4.6,5.3-9,8.1-13.3
			c0.3-0.5,1.5-0.8,2.1-0.6c2.6,0.9,5.1,2,7.7,3c0.4,0.1,0.7,0.4,1,0.6c5.3,2.9,8.3,2.8,13-1.1c1.4-1.2,2.3-1.8,4-0.3
			c1.3,1.1,3.1,1.5,4.8,2.4C194.1,406,192,407.2,189.9,408.4z M203.1,383.6c-0.5,5.2-1,10.4-1.5,15.6c-0.1,1.4-0.6,1.7-1.9,1.6
			c-5.1-0.7-9.2-3.2-12.6-6.9c-0.6-0.7-0.8-1.2-0.1-2c0.5-0.7,0.9-1.5,1.3-2.3c2.4-5.1,6.5-7.4,12.2-7.5c0.4,0,1,0.1,1.6,0.2
			C203,382.3,203.2,382.7,203.1,383.6z M202.1,380.1c-2.6,0.1-5.2,0.3-7.7,0.8c-2.8,0.6-4.9,2.4-6.4,5c-0.9,1.6-1.9,3.2-3,5
			c-0.7-0.9-1.3-1.6-1.9-2.3c-2.5-2.5-4.9-5.1-7.5-7.5c-0.9-0.8-0.8-1.3-0.2-2.1c2.7-3.2,5.9-5.7,9.7-7.4c5.6-2.5,11.6-3.1,17.6-3.3
			c3.6-0.2,7.1,0,11,0c-1.6,1.2-3,2.2-4.3,3.4c-2.2,1.9-4,4.1-4.9,6.9C204.1,379.8,203.4,380,202.1,380.1z M204.7,400.5
			c0.2-1.4,0.4-2.6,0.5-3.7c0.3-2.9,0.5-5.9,0.9-8.7c1.5-9.3,6.7-15.5,15.6-18.9c5.8-2.2,11.7-3.8,18.3-5.3
			c-5.5,5.5-10.1,10.9-6.6,18.8c0.2,0.1,0.2,0.1,0.3,0.1c-1.6-6.9,1.5-11.6,6.9-15.3c2.2-1.5,4.4-3,5.4-5.8c0.2-0.6,1.2-0.9,2.2-1.6
			c-0.2,1.7-0.4,3-0.5,4.2c-0.9,9.1-4.7,16.7-11.3,22.9c-1.1,1.1-1.7,1-2.8-0.1c-1.3-1.3-2.8-2.3-4.4-3.1c-2.1-1.1-3-2.6-3.1-4.9
			c-0.1-1.6-0.4-3.3-0.9-4.9c-0.3-0.9-1.1-1.6-1.9-2.2c0.5,1.6,1.1,3.2,1.4,4.8c0.3,1.7,0.2,3.4,0.3,5.1c-4.8-0.5-9.4-0.9-14.1-1.4
			c0,0.2,0,0.4-0.1,0.6c2.6,0.3,5.3,0.5,7.9,1.1c2.6,0.6,5.2,1.5,7.6,2.5c2.6,1.1,4.8,2.7,6.7,5.1
			C224.1,394.7,214.6,397.6,204.7,400.5z M227.2,411.9c-0.2,0.9-0.1,2.2-1.5,2.4c0-3.2,0-6.2,0-9.3c0-1.3,1-1.3,1.7-1.6
			c6.2-2,11.7-5.2,16.8-9.3c1.5-1.2,3-2.6,4.6-4c0.6,2.5,0.5,4.4-1.1,6.3c-3.1,3.4-6.6,6.1-11.2,7.2c-2.2,0.5-4.4,1.3-6.1,2.9
			C228.7,408,227.6,409.7,227.2,411.9z M237.8,434.1c-1.5-5-2.8-10.1-2.5-15.4c0.3-4.9,2.3-7.4,7.1-8.5c2.5-0.6,5-1.2,7.6-1.9
			c0.6,2.9,0.3,5.4-2.3,7.5c-1.7,1.4-3.1,3.4-4.4,5.2c-1.4,1.9-1.8,4.2-1.5,6.6c0.3-1.4,0.4-2.8,0.9-4c0.6-1.4,1.6-2.7,2.6-3.9
			c1-1.1,2.3-2,3.5-2.8c1.5-1,1.6-0.9,1.8,0.8c0.8,6.2,2.7,12,6.3,17.2c0.3,0.4,0.2,1.1,0,1.6c-2.7,6.4-7.5,10.7-14,13.4
			C241.2,444.6,239.4,439.4,237.8,434.1z M248.8,498.9c-1,1.8-1.9,3.6-2.9,5.4c-2.6-3.1-2.4-7.4,0.6-9.9c0.2-0.2,0.6-0.2,1-0.2
			c0.1,0,0.1,0.1,0.2,0.1c1,0.6,2,1.2,3,1.9C250.1,497.1,249.4,498,248.8,498.9z M266.4,497.2c-0.3,0.4-0.8,0.8-1.1,1.2
			c-1.8,2.2-1.8,2.2-4.3,0.6c-1.9-1.2-3.8-2.3-6-3.7c3.5-2.1,6.8-4.1,10.1-6c0.3-0.2,1.2,0.2,1.5,0.6
			C268.3,492.2,268.2,495,266.4,497.2z M263.6,424.3c2,0.5,3.8,1,5.6,1.5c2.6,0.6,4.5,2.4,4.7,5c0.2,2.4-0.2,4.9-0.3,7.3
			c-0.1,1.2-0.7,1.3-1.5,0.7c-2.8-2.3-5.5-4.7-8.2-7.1c-0.4-0.4-0.6-1.1-0.6-1.7C263.2,428,263.4,426.1,263.6,424.3z M265.3,442.8
			c0.4-0.8,0.8-0.8,1.5-0.4c0.8,0.5,1.7,0.9,2.5,1.3c2.7,1.2,2.7,1.2,1.8,4c-1.6,5.3-3.2,10.5-4.9,15.9c-2-1.9-3.2-4.4-3.7-7.2
			C261.7,451.5,263,447,265.3,442.8z M260.6,440.8c0.3-0.5,0.9-0.7,1.4-1.1c0.1,0.6,0.4,1.3,0.2,1.9c-1,3.4-2.3,6.7-3.1,10.2
			c-1.2,4.9,0.2,9.4,3.8,12.6c3.3,2.9,4.4,6.5,5.4,10.4c1.6,6.1-2,11.5-6.9,14.7c-2.4,1.5-4.8,3.1-7.3,4.5c-0.5,0.3-1.4,0.4-1.8,0.1
			c-4.3-2.8-7.6-6.4-9-11.5c-0.8-2.8-0.4-5.5,0.5-8.2c2.1-6.4,2.5-12.9,0.7-19.4c-0.3-1-0.2-1.6,0.9-2c1.8-0.7,3.6-1.6,5.4-2.4
			c1-0.5,1.6-0.5,2.2,0.7c2.5,5,2.7,12.2-2.3,16.4c-1.4,1.2-2.4,2.7-3.5,4.2c-1.8,2.4-2.6,7.1-0.1,10.8c-1.9-5.2,0.4-9.1,4.1-12.4
			c0.1-0.1,0.2-0.2,0.3-0.3c6.2-5.8,7.5-9.6,3.6-19.7c-0.5-1.2-0.4-1.7,0.5-2.7C257.5,445.4,258.9,443,260.6,440.8z M344.1,439.5
			c-2.4,0.7-4.7,0.7-6.9-0.5c-2.7-1.5-1.5-4.1-2.2-6.4C338.1,434.9,341,437.2,344.1,439.5z M331.6,441.1c-1.1,2.2-2.1,4.4-3.3,6.5
			c-1.3,2.2-3,4.3-4.5,6.5c-2.2-3-4.6-5.9-6.6-9c-3-4.4-2.8-9.9,0.2-14c0.7-0.9,1-1.1,2-0.4c3.7,2.6,7.4,5.1,11.2,7.5
			C331.7,439,332.3,439.8,331.6,441.1z M312.7,401.9c3.6,1.1,6.4,3,8,6.6c2,4.4,4,8.8,6.2,13.1c1.3,2.6,3,5,4.3,7.6
			c0.8,1.7,1.1,3.8,1.6,5.6c-7.3-3.4-12.5-8.6-15.8-15.5c-1.2-2.5-2.6-4.9-3.2-7.6c-0.6-2.9-1.4-5.7-2.2-8.5
			C311,401.7,311.4,401.5,312.7,401.9z M336.8,374.4c3.2,0.4,6.5,1,9.3,1.4c-4.5,1.5-9.5,2.5-14.9,0.7
			C332.8,374.7,334.7,374.1,336.8,374.4z M274.7,398.5c-0.1,0.1-0.2,0.2-0.4,0.4c-2.1-2.1-4.3-4.2-6.4-6.2c0.2-0.2,0.4-0.4,0.6-0.6
			C270.8,394,273.5,395.6,274.7,398.5z M304.6,403.5c-2.4-0.2-4.6-0.5-6.8-0.6c-0.8-0.1-1.5,0-1.8-1c-1.2-3.3-3.6-5.6-6.6-7.8
			c3.4,0,6.4-0.1,9.5,0c4.6,0.3,4.6,0.4,5,5.1C304.2,400.6,304.4,402.1,304.6,403.5z M276.3,367.6c7.5,5.9,15.8,10.2,24.8,13.2
			c0.8,0.3,1.9,0.1,2.1,1.5c0.2,1.4-0.9,1.7-1.7,2.2c-0.1,0-0.1,0.1-0.2,0.1c-3.1,2.9-6.8,3.2-10.8,2.4c-2.5-0.5-5.2-0.6-7.8-0.9
			c-5.3-0.6-9.4-3.5-13.4-6.7c-0.4-0.3-0.6-1.1-0.5-1.7c0.7-4.8,1.4-9.7,2.2-14.6C272.7,364.6,274.5,366.2,276.3,367.6z"/>
		<path class="st1" d="M110.5,155.1C110.5,155.1,110.5,155.1,110.5,155.1C110.5,155,110.5,155,110.5,155.1L110.5,155.1z"/>
		<path class="st1" d="M374.6,219.3c-0.2,0-0.4,0.1-0.6,0.1c0.2,0.1,0.3,0.1,0.5,0.2C374.5,219.4,374.6,219.3,374.6,219.3z"/>
		<path class="st1" d="M304,39.8C304,39.8,304,39.8,304,39.8C304,39.8,304,39.8,304,39.8L304,39.8z"/>
		<path class="st1" d="M374.6,134.8C374.6,134.8,374.6,134.8,374.6,134.8C374.6,134.8,374.6,134.8,374.6,134.8
			C374.6,134.8,374.6,134.8,374.6,134.8z"/>
		<path class="st1" d="M353.2,251C353.2,251,353.2,251,353.2,251C353.1,251,353.1,251,353.2,251L353.2,251z"/>
		<path class="st1" d="M489.1,328.3c-0.8-0.1-1.5-0.1-2.3-0.2c-8.7-0.3-17.3-0.7-26-0.8c-35.2-0.4-70.3-0.8-105.5-1
			c-26.1-0.2-52.3-0.1-78.4-0.1c-3.7,0-3.7,0-3.7-3.9c-0.4-17.1-0.8-34.3-1.2-51.4c0-0.7,0.1-1.4,0.3-2.1c1.1-4.2,3.8-7.1,7.7-8.8
			c2.5-1.1,5.3-1.7,7.8-2.7c13.7-5.8,26.3-13.4,37.4-23.2c3.5-3.1,6.9-5,11.5-4.1c0.2,0,0.5,0,0.7,0c3.3,0.4,6.7,0.3,9.4,2.7
			c3.2,2.8,4.7,6.3,4.5,10.6c-0.1,2.7,0.1,5.4,1.7,7.7c2.9,1.5,5.8,3.1,8.7,4.6c0.1-0.2,0.2-0.5,0.4-0.7c-1.4-0.7-2.8-1.6-4.2-2.1
			c-2.7-0.9-4.3-2.7-4.7-5.4c-0.2-1.5-0.1-3-0.2-4.5c-0.2-2.3-0.3-4.6-1-6.8c-1.3-3.9-4.3-6.2-8.7-7.5c5.3-2.4,9-5.9,12.3-9.9
			c0.7-0.9,1.5-1,2.2-0.3c2,1.9,4.3,3.6,5.9,5.8c4.1,5.6,9.1,9.5,16,11.3c4,1,7.3,3.4,10.3,6.2c0.2,0.2,0.1,0.6,0.1,0.9
			c-1.4,0-0.6,1-0.6,1.5c0.1,1.3,0.2,2.6,0.3,4c-0.1,0-0.3,0-0.4,0c-0.3-1.8-0.5-3.5-0.8-5.4c-2.6,0.7-3.8,2.4-4.5,4.6
			c-1.2,3.7,0.3,6.8,2.4,9.7c2.5,3.5,3.7,3.4,6.2,0c1.8-2.4,2.5-5.2,2.4-8.5c0.7,0.9,1.2,1.4,1.6,1.9c0.1-0.1,0.2-0.1,0.3-0.2
			c-0.3-1.3-0.5-2.6-0.8-3.9c5.1,2.6,9.9,1.9,14.1-1.8c0.7-0.6,1.3-1.2,0.6-2.2c-2.5-3.5-6.3-6.3-11-5.7c-3.1,0.4-4.9,1.9-5.7,4.8
			c1.8,0,3.6,0,5.4,0c-0.6,0.4-1.3,0.6-1.9,0.5c-1.9-0.1-3.8,0.4-5.3-1.8c-1.4-2-3.7-3.3-5.7-4.9c-0.7-0.6-1.6-0.9-2.8-1.6
			c1.8-0.3,2.9-0.5,4.1-0.7c0.9-0.2,1.4-0.7,1.2-1.6c-0.6-2.6-0.8-5.4-1.9-7.8c-2.2-5.1-5.9-8.8-11.8-9.5c-2.5-0.3-4.7,0.3-6.8,1.6
			c-0.9,0.5-1.1,1.2,0.1,1.7c1.8,0.7,3.5,1.4,5.3,2c0.2,0,0.4-0.1,0.6-0.1c-0.1,0.1-0.1,0.2-0.2,0.3c-0.2-0.1-0.3-0.1-0.5-0.2
			c-0.4,0.1-0.7,0.1-1.1,0.2c-0.2,0.2-0.3,0.4-0.5,0.6c0.6,0.3,1.2,0.7,2.1,1.1c-1.4-0.4-2.5-0.4-3.4-1c-1.3-0.8-2.4-1.9-3.8-3
			c-0.5,1.4-0.8,2.4-1.1,3.5c-1.2-1.8-2.2-3.4-3.3-5c5.2-2.2,10.2-4.3,15.8-3.2c-0.7-0.4-1.3-0.7-2-0.8c-3.3-0.8-6.7-0.7-9.8,0.5
			c-4,1.5-7.6,1.7-10.6-1.9c-0.1-0.1-0.3-0.2-0.4-0.3c-0.2-0.5-0.6-1.1-0.5-1.6c1.6-4.4,4.5-7.7,8.5-10.6c-0.1,1-0.1,1.6-0.1,2.2
			c-0.2,2.8,0.6,5.3,2.3,7.5c1,1.3,1.3,1.2,2.1-0.2c1-1.7,1.2-3.4,1-5.3c0-0.2,0.1-0.4,0.2-0.9c0.2,0.8,0.4,1.2,0.6,2
			c0.7-1.2,1.3-2.2,1.8-3.1c-0.8,1.7-0.2,3.9-1.7,5.4c-0.5,0.5-0.6,1.3-0.9,1.9c-0.7,1.8-0.6,2,1.4,2c5.1,0.2,10.2-3.4,11.8-8.3
			c1.1-3.3,1.2-6.6,0.8-10.1c-0.4-3.5-2.4-6.7-2-10.3c0-0.4-0.2-1-0.5-1.3c-1.2-1.4-1.3-3.1-1.1-4.7c0.2-1.8,0.6-3.6,0.9-5.7
			c-2.7,5.2-2.9,6.7-1.8,12.1c0.5,2.6-0.1,3.6-2.7,4.6c-1.3,0.5-2.5,1-3.7,1.5c-0.8-3-3.8-2.4-6-3.5c1.6-2.6,1.8-5.4,1.4-8.3
			c-0.2-1.5-1.1-2-2.3-1.5c-1.4,0.5-2.9,1-4.1,1.8c-2.7,1.8-4.8,5.3-2.5,9.3c0.2,0.4,0.3,1.4,0,1.6c-0.9,0.8-1.1,3.5-3.4,1.6
			c-0.4-0.3-1.4-0.1-2.1,0.1c-1.9,0.5-3.9,0.8-5.7,1.7c-1.8,0.9-3.1,0.4-4.6-0.4c-3-1.7-6.3-2.1-9.6-1.1c-0.4,0.1-0.8,0-1.5-0.1
			c1.9-2.6,4.6-3.4,7.2-4.3c9.9-3.4,19.1-8,26.8-15.4c0.9-0.9,1.3-0.6,2,0.1c1.7,1.6,3.8,2.6,6.2,2.7c0.7,0,1.5-0.3,2.3-0.5
			c-0.3-0.7-0.6-1.4-1-2c-0.5-0.6-1.1-1-1.4-1.3c0.5-0.9,1-1.7,1.4-2.4c0,1.8,0.1,3.7,2.2,4.9c2.1-2.5,2.5-5.3,1.8-8.4
			c1,1.2,2,2.2,3.1,3.5c0.6-1.3,0.9-2.1,1.3-3c0.2,0.7-0.1,1.3,0,1.9c0,0.4,0.4,1,0.8,1.1c1.5,0.4,5.7-1.9,6.6-3.2
			c0.6-0.9,1.4-1.8,2.3-2.1c4.2-1.8,8.7-0.4,11.9,3.9c1.7,2.2,3,4.7,4.3,7.1c2.6,4.5,7.5,4.7,10.2,0.3c1.3-2.2,3.2-3.5,5.5-4.2
			c0.8-0.2,1.5-0.5,2.3-0.7c-3-0.3-5.5,0.7-7.6,2.6c-0.8,0.7-1.4,1.5-2.2,2.1c-2.2,1.8-4.5,1.5-6.1-0.8c-0.6-0.9-1-2-1.5-3
			c-0.7-1.4-1.3-2.9-2.2-4.2c-3-4.3-6.9-7.1-12.3-7.6c0.9-3,2.8-5.1,5.1-6.8c3.8-2.8,7.8-5.5,11.6-8.3c2.7-2,5.5-4.1,7.7-6.6
			c2.7-3,3.1-6.6,0.9-10.1c-2.8-4.3-3.9-9.1-4.2-14.2c-0.1-2.3-1.2-4.5-1.9-6.8c-0.1-0.3-0.6-0.5-0.9-0.7c0,0.4-0.1,0.9,0,1.3
			c0.5,2.4,1.5,4.8,1.5,7.1c0,4.4,1,8.4,2.9,12.3c2.2,4.4,1.3,8.3-2.5,11.5c-1,0.8-2,1.6-3,2.3c-6.9,4.9-14.6,8.7-20.1,15.6
			c-0.6-1.5-1.1-2.7-1.5-4c-0.5-1.7-1.5-1.8-2.9-1.3c-3.9,1.5-7.1,4-8.6,8c-0.6,1.5-1.2,1.6-2.6,1c-1.2-0.5-1.1-1.3-1-2.3
			c0.3-3.5,0-7-1.6-10.2c-0.6-1.2-0.3-1.7,0.6-2.5c1.7-1.6,1.7-3.1,0.3-4.9c-0.3-0.3-0.5-0.7-0.8-1.1c0,0,0,0,0,0c0,0,0,0,0,0
			c0,0,0,0,0,0c0.2,0.7,0.4,1.5,0.7,2.2c0.6,1.4,0.3,2.7-0.9,3.5c-0.3,0.2-1.1,0.2-1.4-0.1c-2-2.1-4.2-4.1-5.9-6.4
			c-2.5-3.4-2.5-8.1-0.3-11.1c0.3-0.4,0.5-0.8,0.7-1.2c0.2,0.1,0.3,0.3,0.5,0.4c-0.3,1-0.8,2-1,3.1c-0.2,1.1-0.3,2.3-0.3,3.5
			c0,1.1,0.6,1.6,1.7,0.9c1.3-0.8,2.6-1.5,3.9-2.2c0.1,0.2,0.3,0.3,0.4,0.5c-0.4,0.4-0.8,0.9-1.3,1.2c-0.6,0.4-1.3,0.5-1.9,0.8
			c-0.6,0.3-1.2,0.7-1.8,1.1c0.6,0.5,1.2,1.3,1.9,1.6c1,0.4,2.1,0.8,3.2,0.8c1.2,0,1.6,0.6,2,1.5c0,0,0,0,0,0
			c-0.3-1.3,0.5-1.5,1.5-1.9c6.3-2.2,8.9-7.2,9.9-13.4c0.2-1.3-0.1-2.1-1.6-2.2c-1,0-2-0.4-3.1-0.6c0.3-0.5,0.5-0.9,0.7-1.3
			c2.5-4,3-8.5,2.7-13.1c-0.1-1.1-0.4-1.8-1.7-1.7c-1.6,0.1-3.2,0-4.7,0.3c-5,1-9.1,3.4-11.6,8c-1.4-2-2.7-4-4.1-5.8
			c-1.6-2-1.8-2,0.3-3.8c1.2-1.1,1.3-1.9,0.2-3.1c-4.1-4.7-9.2-6.9-15.2-5.7c0.8-2.4,1.6-4.9,2.3-7.4c0.3-0.9,0.4-1.9-0.9-2.3
			c-4.4-1.1-11.6-1.2-15.4,4.1c-1.6,2.2-2.4,4.7-1.3,7.2c1.2,2.7,3.7,3.6,6.5,3.4c0.6,0,1.3-0.2,1.9-0.1c0.3,0,0.7,0.4,0.7,0.5
			c-0.2,1.8,1,1.1,1.9,1.1c3.7,0,7.3,0,11,0c-1.5,0.3-3,0.2-4.4,0.3c-2.4,0.1-4.8,0.4-7.2,0.5c-1.1,0.1-1.5,0.5-0.8,1.5
			c1.2,1.6,2.5,3.2,3.8,4.8c-0.8,0.9-1.8,2-2.9,3.1c-0.3,0.3-0.8,0.5-1.1,0.4c-4.1-1.6-8.2-2.1-12.1-0.8c0.4-2.4,1.1-4.7,1.1-7
			c0-1.7,0.7-2.4,2-2.6c1.4-0.3,2.8-0.4,4.2-0.5c-1.7-0.3-3.4-0.4-4.9,0c-1.4,0.4-1.6-0.2-1.9-1.2c-0.5-1.7-1.3-3.2-1.9-4.8
			c-0.4-1.1-1.1-1.5-2.2-0.8c-1,0.5-2,0.9-3,1.5c-0.7,0.4-1.2,0.6-1.7-0.4c-1.8-4.1-4.7-7.3-8.7-9.3c1.6-2,3.7-3.6,4.6-5.8
			c1-2.4,3.2-2.3,4.8-3.5c0.2-0.2,0.7,0.1,1.1,0.2c-0.2,0.2-0.6,0.5-0.5,0.7c0.3,0.7,0.2,0.7-0.5,0.6c-0.7-0.1-1.4,0.1-2,0.1
			c-1.5,0.2-1.5,0.8-0.7,1.9c2,2.4,4.6,3.5,7.6,3.2c5.2-0.5,8.4-4,11.2-8c0.2-0.2-0.1-1-0.4-1.3c-2.4-2.1-5.2-3.6-8.5-3.9
			c-3.2-0.3-6.1,0.3-9,2.6c0.2-1.9,0.4-3.3,0.5-4.7c0.3-3.3,1.3-4.3,4.5-4.1c3.1,0.2,6.3,0.7,9.4,1.2c3.5,0.6,6.6-0.1,9.1-2.7
			c1.2-1.3,2.6-2.4,3.8-3.6c-1.6,0.6-3.1,1.4-4.3,2.6c-2.4,2.3-5.2,2.9-8.3,2.4c-1.6-0.2-3.1-0.7-4.6-1c-2.8-0.7-5.6-1.3-8.5-0.6
			c-0.3,0.1-0.9-0.3-1-0.6c-0.3-0.7-0.3-1.6-0.4-2.3c-0.6-4.9-2.6-9-6.7-12c0,0,0,0,0,0c-3.3-1.1-6.6-2.2-9.9-3.3
			c0.3,0.4,0.6,1,1,1.2c1.8,0.9,3.7,1.9,5.6,2.5c4.5,1.4,6.9,4.6,7.5,8.9c0.5,3.3,0.7,6.8,0.5,10.2c-0.5,8.2-4.2,14.5-11.6,18.3
			c-2.7,1.4-5.5,2.9-8,4.6c-3.6,2.4-6.9,5.1-10.4,7.7c-6-7.1-7.4-8-17.2-10.1c-2.9-0.6-5-2-6.2-4.8c-0.3,0.3-0.7,0.7-1,1
			c0,0.5-0.1,1.1,0.1,1.5c1.1,2.5,3.3,3.5,5.8,4c4.4,1,8.7,2.5,12.2,5.5c2.7,2.3,4.4,5.2,3.8,8.7c-0.7,4.8-2.1,9.6-3.1,14.4
			c-0.2,1-0.5,1.3-1.5,1.2c-1.6-0.1-3.2,0-4.7,0.1c-1.1,0-1.5,0.6-1.4,1.7c0.2,3.8,1.4,7.2,4.2,9.8c0.9,0.9,1.1,1.7,0.8,2.9
			c-1.2,4.8-2.2,9.7-3.5,14.5c-0.9,3.5-2.3,6.8-4.2,10c-0.3-4.3-2.3-7.6-5.5-10.2c-0.8-0.6-1-1.3-0.6-2.3c1.6-4.2,1.3-8.4,0.3-12.6
			c-0.7-3-0.7-3-3.5-2.2c-1.9,0.5-3.8,1.3-5.3,1.8c-0.7-1.8-1.1-3.4-1.9-4.9c-0.9-1.7-1.6-3.4-1.1-5.2c0.6-2.5,0.5-5-0.2-7.5
			c0,0,0,0,0,0c-1.7-1.8-3.3-3.7-5.1-5.3c-0.9-0.8-1.1-1.1-0.3-2.2c3.6-5.3,3.3-11,1.9-16.9c-0.2-1-0.7-1.3-1.7-1.1
			c-1.3,0.3-2.6,0.5-4,0.7c1-1.1,2-2,2.9-3.1c0.8-1,1.6-2.2,2.3-3.3c0.7-1,1.1-0.8,1.6,0.1c1.1,1.8,2.7,3.1,4.8,3.7
			c2.4,0.7,3.8-0.3,5.3-2.2c1.1-1.4,0.7-2.6,0.3-4c-0.2-0.7-0.7-1.2-1-1.9c-0.1-0.3-0.3-1-0.1-1.1c1.3-0.9,0.4-1.4-0.4-1.9
			c-1.1-0.6-3-1-3.1-1.7c-0.1-1.3-1.3-1.7-1.7-2.8c1.1,0.5,1.9,1.2,2.8,1.3c1.4,0.1,0.7,1.7,1.7,2c0.3,0.1,0.5,0.3,0.8,0.5
			c1,1,1.9,0.8,2.2-0.6c0.3-1.6,0.7-3.4,0.3-4.9c-0.6-2.3-1.9-4.4-2.9-6.4c0.6,0.1,1.5,0.3,2.5,0.5c1.9,0.2,2.1,0.1,1.5-1.7
			c-0.4-1.3-1.6-2.5-1.7-3.8c-0.1-1.1,0.2-2.2-0.1-3.4c-0.5-1.7-1-3.4-1.4-5.2c0.7,0.1,1.3,0.5,1.5,1c0.3,1.2,0.3,2.5,0.6,3.7
			c0.3,1.1,0.5,2.4,1.3,3c1.4,1-0.5,1.9,0.2,2.7c0.3,0.4,0.4,1,0.6,1.5c0.7,1.8,1,1.9,2.4,0.7c4.8-3.8,6.2-10.7,3.4-16.4
			c-2.3-4.5-5.8-7.9-10-10.6c-1-0.6-1.6-0.7-2.4,0.3c-2.8,3.3-4.8,6.9-5.4,11.2c-0.2,1.5-0.6,1.9-2.2,1.7c-4-0.5-7.9,0.2-11.5,2.3
			c-4.1,2.4-6.5,6-6.4,10.9c0,1.1,0.8,2.3,1.3,3.4c0.9-0.8,2.3-1.4,2.7-2.4c0.9-2.1,3.2-1.8,4.3-3.3c-0.5,0.8-1,1.4-1.7,1.9
			c-1.2,0.9-0.3,1.2,0,1.4c-1.1,0.7-2.4,1.4-3.4,2.3c-1.3,1.2-1.2,1.7,0.6,2.1c2,0.5,4.2,0.6,6.3,0.6c0.8,0,1.3,0,1.8,0.9
			c1.2,2.4,2.7,4.6,4.1,6.9c0.2,0.4,0.3,1,0.5,1.4c-0.5,0-1,0.1-1.5-0.1c-3.2-1.3-6.6-1.6-9.9-0.8c-1.5,0.3-1.7-0.2-2.2-1.4
			c-1.7-3.8-3.6-7.5-5.5-11.3c-0.1-0.1-0.3-0.2-1.1-0.5c1,2.6,1.9,4.7,2.7,6.8c0.7,2,1.5,4,2,6.1c0.5,1.8-0.5,2.9-1.9,3.6
			c-1-2.1-1.8-4-2.8-5.9c-0.2-0.4-1.2-0.9-1.6-0.8c-4.6,1.2-8.3,8.1-6.9,12.6c0.6,1.7,1.4,3.3,3.6,3.9c0.2-1.5,0.4-3,0.7-4.4
			c0.2,0,0.4,0,0.6,0.1c-0.1,1-0.2,1.9-0.3,2.9c-0.3,1.7,0.1,2.1,1.7,1.4c1.3-0.6,2.4-1.5,3.7-2.2c-1.9,5.6-5.7,10.4-6.2,16.5
			c-2.8-1.2-5.4-2.4-8.2-3.6c1.8-1,3.4-1.7,5-2.7c1.5-0.9,2.8-2.1,4.2-3.1c-0.1-0.1-0.2-0.3-0.3-0.4c-2.8,2.4-5.9,4.2-9.5,5
			c-1.1,0.2-2.4,0.2-3.4-0.2c-8.4-3.7-14-9.8-16.3-18.8c-0.6-2.5-1.6-5-2.7-7.3c-1-2.1-2.6-3.6-5.1-3.7c3.1,1.4,4.9,3.9,5.7,7.2
			c0.4,1.6,1.1,3.2,1.3,4.8c1,5.5,3.7,10.1,7.6,14c0.3,0.3,0.7,0.7,1,1c2,1.5,4,3.1,6.1,4.5c1,0.7,0.8,1.1,0.3,2
			c-1,1.7-2,3.5-2.5,5.3c-0.5,1.7-1.1,1.9-2.6,1.4c-0.9-0.3-2.2-0.9-2.4,0.8c-0.4,2.5-2.1,3.2-4.3,3.4c-0.8,0.1-1.6,0.3-2.3,0.5
			c-3,0.9-5.9,0.2-8.4-1.4c-3.4-2.3-6.3-5.1-9.9-7.2c-2-1.1-3.3-3.3-4.8-4.9c0.7,2.5,2.6,4.9,5.4,6.9c1.3,0.9,2.6,2.1,3.6,3.3
			c0.8,1,0.7,2-1,2c-1.5,0-2.4,0.7-2.1,2.4c0.2,1.1-0.3,1.7-1.3,2.4c-1.8,1.4-3.5,3-4.8,4.8c-2.2,3-2.5,6.6-1.9,10.3
			c-3.1-0.3-5.5-1.9-7.6-3.8c-7.1-6.3-14-12.6-21-18.9c0,0,0,0,0,0c-1.1-0.6-2.8-0.9-3.1-1.7c-1.8-4.5-4.8-7.5-9-9.7
			c-2.7-1.5-2.9-2.7-1.5-5.7c0.4-0.8,0.5-1.8,0.7-2.7c-0.6,0.8-1,1.7-1.5,2.4c-1.5,2.1-1.3,4.3,0.8,5.9c1.2,0.9,2.5,1.7,3.7,2.6
			c2.1,1.7,4,3.6,4.9,6.3c0.3,0.8,0.2,1.2-0.8,1.6c-1.5,0.6-3.2,1.2-4.3,2.2c-3.8,3.6-8.4,5.2-13.4,6.1c-1.4,0.2-2.7,1.1-4.1,1.7
			c0.2,0.2,0.4,0.4,0.6,0.6c2.1-0.5,4.1-1.1,6.2-1.3c3.7-0.4,6.9-1.6,9.8-3.8c2-1.5,4.4-2.2,6.9-1.9c0.8,0.1,1.5,0.5,2.2,0.7
			c-4.6,0.7-8,3.7-9,8c-0.3,1.1,0.1,1.7,1.1,2c3,0.9,6.1,1.3,9-0.2c2.5-1.3,3.5-3.6,3.6-6.7c3.1,3.1,5.8,5.9,8.6,8.7
			c5,5,10.1,9.8,17.2,11.9c4.5,1.4,6.4,5.1,6.1,9.9c0,0.3-0.1,0.8-0.2,0.9c-2.1,0.5-2.1,2.6-3.1,3.9c-0.3,0.3-0.6,0.7-1,0.8
			c-2,0.3-3.9,0.7-5.9,0.6c-1,0-1.5,0.3-2.2,0.9c-2,1.7-4.2,3-7.1,1.9c-1.2-0.5-2.6-0.9-3.9-0.8c-2.9,0.2-4.5-1.5-6.1-3.4
			c-0.4-0.5-0.8-1-1.2-1.5c-0.2,0.1-0.3,0.2-0.5,0.3c0.8,1.1,1.4,2.4,2.3,3.4c0.6,0.7,0.9,1.3,0.7,2.3c-0.4,2.8,0.4,5.5,1.7,8
			c2.2,4.1,6.4,6.2,10.2,5.2c0.9-0.2,1.9-0.3,2.1-1.7c0.1-0.5,1-1.4,2.1-0.7c0.7,0.4,1.5,0.6,2.7,1c-0.3-1.6-0.5-2.7-0.7-3.8
			c0.2,0,0.3-0.1,0.5-0.1c0.1,0.6,0.3,1.1,0.4,1.7c0.3,1.6,0.7,1.7,2,0.7c1.9-1.6,2.6-4.5,1.6-7.2c-0.5-1.3-1.3-2.5-1.9-3.8
			c2.8-0.3,2.8-0.3,2.9,2.5c0.1,3.6,1.1,6.7,4.1,9c0.5,0.3,0.9,0.7,1.1,0.8c-2.7,0.5-5.5,1.1-8.2,1.6c-0.7,0.1-1.4-0.1-2.1-0.3
			c-0.4-0.1-0.8-0.5-1.1-0.7c3.3,3.7,2.5,8.3,0.5,11.4c-0.6,0.9-1.1,1-2.1,0.5c-2.3-1.1-4.6-2.2-7-2.9c-1.4-0.4-2.1-1-2.7-2.2
			c-1.1-2.1-2.3-4.2-3.8-6c-2.8-3.1-5.8-6-8.6-8.8c1-0.9,2.3-1.8,3.3-2.9c0.8-0.9,0.5-1.7-0.8-1.5c-1.8,0.2-3.5-0.4-5.2-0.9
			c1.4,0,2.9,0.1,4.3,0.2c0.7,0,1.4-0.1,2.1-0.1c-0.1-0.7,0-1.6-0.3-2.2c-1.5-3.3-5.6-5.3-9.5-4.3c-2.6,0.6-4.9,2.1-7.3,3.2
			c-0.6,0.2-1.3,0.6-1.8,0.5c-0.7-0.2-1-0.9-0.4-1.7c0-0.1-0.2-0.3-0.3-0.5c-1.3,1.3-1.4-0.3-1.7-0.8c-1-1.7-1.1-3.5-0.5-5.3
			c0.8-2.3,1-4.7,0.2-7c-0.5-1.6-0.5-3.2,0-4.8c0.9-3,0.3-6-1.4-8.6c-0.8-1.3-2-2.4-3.5-2.7c-0.7,4-1.4,7.9-2.1,11.7
			c-0.2,0-0.4,0-0.5-0.1c0-0.6,0-1.1,0-1.7c0.2-1.8,0.4-3.6,0.6-5.5c0-0.4,0.4-0.7,0.3-1.1c-0.1-0.8-0.1-1.6-0.4-2.3
			c-0.6-0.9-1.5-0.9-2.5-0.4c-3.6,1.9-5.4,4.9-5.7,8.8c-0.3,4.3,1.4,8,3.5,11.7c0.8,1.3,1.6,1.8,2.9,0.8c2.4-1.9,4.9-3.8,7.3-5.8
			c0.2,1.4,0.4,3.2-0.7,4.7c-1.7,2.2-1.4,4.4-0.8,6.8c0.2,0.7,0.4,1.3,0.6,2.2c-1-0.9-1.7-1.6-2.5-2.2c-3.6-2.4-7.6-3-11.8-2.1
			c-3.2,0.6-3.1,0.6-2.4,3.8c0.7,3.4,2.4,6.3,4.4,9c0.8,0.5,1.7,1.1,2.6,1.6c3.5,1.8,6.9,1.6,10.3-0.6c0,0.6,0.1,1,0.1,1.4
			c-0.3,3-1.2,5.7-2.9,8.2c-2.4,3.8-2.2,6.8,0.7,10.2c0.4,0.4,0.7,1,0.9,1.4c-12.1,5.4-20,0.3-25.8-10.2c1.7,4.3,4.3,7.8,7.5,10.8
			c3.7,3.4,8,4.7,12.9,3.6c2.2-0.5,4.4-1.2,6.7-1.7c0.7-0.2,1.7-0.3,2.2,0.1c3.6,2.4,7.1,5,10.7,7.5c0.9,0.6,1,1.1,0.3,2
			c-4.2,5-9.7,7.8-15.6,10.4c-0.5-6.2-4.2-8.1-9.3-8.9c-1.3-0.2-1.9,0.3-2,1.6c-0.5,4.4,0.7,8,4.7,10.6c-5.9,4.4-9.6,10.1-10.7,17.6
			c0.3-0.2,0.5-0.2,0.6-0.3c0.2-0.3,0.4-0.7,0.6-1c2.3-4.5,5.3-8.4,9.4-11.5c4.3-3.2,4.1-3.5,7.3,0.8c2.5,3.4,6.4,3,8.4-0.8
			c0.8-1.4,1.5-2.8,2.3-4.1c3.6-5.5,8-8.1,14.6-4.2c1,0.6,2.4,0.7,3.6,0.7c2.2-0.1,4.4-0.5,7.1-0.9c-3.3,4.3-3.7,8.8-3.4,13.6
			c0.3,5.6-1.7,8.9-7,10.3c-2.9,0.8-5.4,2.7-7,5.4c-2.7,4.5-2.2,9.3-1.3,14.1c0.2,1,0.9,1.2,1.8,0.9c2.4-0.7,5-1.2,7.2-2.3
			c3.2-1.6,5.5-4.2,6.6-7.7c1.1-3.6,0.3-7-2.8-9.3c-0.6,2.2-1.1,4.3-1.5,6.1c-0.1-0.4-0.2-0.9-0.3-1.6c-0.6,0.8-1,1.4-1.4,2.1
			c0.7-1.5,0.4-3.3,1.8-4.5c0.5-0.4,0.9-2.1,0.7-2.3c-1.2-1-0.1-1.1,0.4-1.4c3.2-1.9,4.7-4.8,4.7-8.5c0-1.3-0.1-2.6,0.1-3.8
			c0.4-2.2,0.7-4.5,1.6-6.4c2.6-5,4.3-5,8-0.7c1.6,1.9,3.3,3.6,5.1,5.2c4.6,4,10.1,6.4,15.8,8.5c2.4,0.9,4.8,1.9,7.2,2.8
			c0,0.2-0.1,0.4-0.1,0.5c-5.3-0.2-10.1,1.1-14.7,3.8c0.5-0.8,0.9-1.6,1.4-2.5c-1.9-0.3-3.4-0.5-4.9-0.7c0-0.2,0.1-0.4,0.1-0.6
			c0.9,0.2,1.7,0.4,2.6,0.5c0.6,0.1,1.4,0.2,1.8-0.1c0.3-0.2,0.2-1.2,0-1.7c-0.7-2-2.1-3.5-4.1-4.3c-4.2-1.7-7.9-0.2-11.5,1.9
			c-1.2,0.7-1.2,1.3-0.5,2.2c1.2,1.7,2.5,3.3,3.8,5.1c-4,2.1-6,5.7-7.3,9.8c-0.4,1.2-0.3,2,1.1,2.5c2.9,1,5.9,1.4,8.9,0.6
			c4.7-1.2,6.9-3.8,7.6-8.5c0.1-0.5,0.3-1.2,0.7-1.3c1.3-0.7,2.7-1.1,4.1-1.7c0.5,0,1-0.1,1.5-0.1c0.5-0.3,1-0.7,1.6-0.9
			c3.4-1.1,6.9-1,10.4-0.7c2.4,0.2,4.2,1.2,5.4,3.3c0.7,1.2,1.6,2.3,2.5,3.7c-4.1,0.1-7.2,2-10.2,4.1c-4.1,2.7-8,5.7-12.2,8.2
			c-4.1,2.4-8.4,3.3-13.2,1.5c-3.8-1.4-7.8-1.5-11.7,0c4.3-0.9,8.1,0.5,12,2c5.5,2.1,10.6,1.1,15.4-2c4-2.7,8-5.5,12.2-7.9
			c3.5-2,7.3-3.6,11.1-0.7c1.1,0.9,2,2,2.9,3.1c4,4.4,8.8,6.7,14.9,6.3c6-0.4,11.9,0.4,17.4,3c1.5,0.7,2.5,1.6,2.7,3.2
			c0.4,2.7,1.2,5.5,1.2,8.2c0.2,21.4,0.2,42.7,0.3,64.1c0,2.8,0,2.8-2.9,2.8c-27.3,0.1-54.6,0-81.9,0.2
			c-38.8,0.3-77.6,0.8-116.5,1.3c-5,0.1-10,0.4-15,0.6c0.1,0,0.1,0,0.2,0.1L489.1,328.3C489.1,328.3,489.1,328.3,489.1,328.3z
			 M255,53.6c1,1.4,2,2.8,3.3,4.5c-1.1-0.3-1.7-0.5-2.2-0.7C253.4,56.4,253.4,56.4,255,53.6z M129.7,204.4c-0.5,1-1,2.2-1.7,3.1
			c-1.3,1.7-3.1,1.8-4.8,0.6c-0.2-0.1-0.4-0.3-0.5-0.5c-1-1-2-2-3.3-3.2c4.5-1.7,8.7-3.2,12.7-4.8
			C131.3,201.2,130.5,202.8,129.7,204.4z M124.1,175.2c-2.3-2.1-3.2-4.7-2.3-7.7c0.8-2.4,1.8-4.7,2.5-7.1c0.4-1.3,0.3-2.6,0.4-4
			c0.2-2,0.4-4,0.7-6.4c7.1,4.3,14.7,7.1,20.2,13c2.3,2.4,4.4,5,5.5,8.2c0.2,0.6,0.3,1.9,0.2,1.9c-0.9,0.3-2,0.7-2.9,0.4
			c-1.3-0.4-2.4-1.4-3.7-2.1c-3.7-1.9-7.2-4-11.1-5.4c-4.8-1.7-8.1-4.2-8.2-9.7c-1,4.3,0.3,7.3,3.9,9.4c2.9,1.6,5.8,3.2,9.1,5
			c-2.1,0.7-3.8,1.2-5.5,1.9c-2.3,0.9-4.5,2-6.7,3C125.4,176.1,124.8,175.9,124.1,175.2z M128.4,178.5c0-0.2,0-0.5,0.1-0.7
			c3.7-0.7,7.4-1.7,11.1-2.2c1.5-0.2,3.1,0.4,4.6,0.8c0.8,0.2,1.1,0.7,0.5,1.6c-1.6,2.2-3.1,4.4-4.5,6.7c-0.7,1.1-1.1,1.1-2.2,0.3
			C134.9,182.7,131.6,180.6,128.4,178.5z M137.6,195.1c0.5-0.6,0.8-1.1,1.2-1.5c2.2-2.6,2.2-2.6,3.5,0.6
			C140.8,194.5,139.3,194.8,137.6,195.1z M158.3,195.4c-1.9,0.4-3.6,1-5.5,1.5c-3.2,0.9-5.1,0-6.7-2.9c-0.8-1.5-1.9-2.9-2.8-4.4
			c-0.3-0.5-0.3-1.5,0-1.8c1.8-1.7,3.6-3.2,5.5-4.8c0.9-0.8,1.5-0.4,2.3,0.5c2.4,2.5,5,4.9,7.4,7.4c0.6,0.7,0.8,1.7,1.2,2.6
			C159.8,194.8,159.4,195.2,158.3,195.4z M160.4,184c-0.1,0.1-0.9-0.3-1.3-0.6c-0.8-0.7-1.6-1.4-2.4-2.1c0.1-0.2,0.2-0.4,0.3-0.6
			c1,0.2,2.1,0.3,3.1,0.6c0.5,0.1,1.3,0.7,1.3,0.9C161.3,182.8,160.8,183.5,160.4,184z M272.6,252c-0.9-8.1,1.8-14.6,6.9-20.8
			C281.2,239.7,277.9,245.9,272.6,252z M275.5,198.3c-0.8,1.9-1.7,3.8-2.5,5.6C272.5,201.4,273.5,199.6,275.5,198.3z M280.9,217.6
			c-0.6-1.2,0.6-1.1,1.1-1.3c6.3-2.6,12.9-3.2,19.6-2.8c0,0.2,0,0.5,0,0.7c-0.5,0.1-1,0.2-1.5,0.1c-6.1-0.4-12,0.6-17.5,3.4
			C282,218,281.4,218.7,280.9,217.6z M305.4,167c-1.7-3-1.8-6.5-3.1-9.6c-0.3-0.6-0.2-1.3-0.3-2c0.2,0,0.4-0.1,0.7-0.1
			c0.2,1,0.4,1.9,0.6,2.9c0.3,1.1,0.8,2.3,0.9,3.4c0.1,1.1,1.4,0.9,1.5,1.4c0.3,0.9-0.1,2,0.2,3c0.7,2.3,1.1,2.4,2.9,0.7
			c3.2-3.1,4.1-8.7,2.1-13c-1.5-3.2-3.9-5.5-6.5-7.9c2.5,0.1,4.9,0.8,7,1.9c4.1,2.1,8.1,4.4,12.1,6.6c1.3,0.7,2.6,1.6,3.9,2.4
			c-0.1,0.2-0.2,0.4-0.3,0.6c-4.4-0.6-8.4,0.4-11.6,3.5c-1.2,1.2-2.3,2.7-2.8,4.3c-0.5,1.7-1.5,2.8-2.9,3.4c-3.6,1.7-6.1,4.5-8,7.8
			c-0.6,1-1,1.4-2.2,0.9c-1.5-0.6-3-1.1-4.1-2.4c-0.5-0.6-1.1-1.2-1.8-1.5c-2.1-0.9-2.5-2.5-2.1-4.6c0.6-3.2,1.5-6.3,3.1-9.3
			c1,1.9,1.8,3.7,2.9,5.2c1.6,2.3,3.9,3.7,6.7,4C305.4,168.7,306.2,168.4,305.4,167z M307,172.1c-1,1.8-1.9,3.7-2.9,5.5
			c-0.2-0.1-0.4-0.2-0.6-0.3c0.3-2.2,1.6-3.9,3-5.5C306.6,171.9,306.8,172,307,172.1z M305.1,185.3c1,0.3,2.1,0.6,3.2,1
			c-2,1.3-4,2.3-5.6,3.7c-3.2,2.7-4.2,6.2-3.1,10.3c0.2,0.6,0.4,1.2,0.9,1.7c0.2,0.2,1.1,0.1,1.2-0.1c0.7-1.2,1.2-2.5,1.7-3.7
			c0.3,0.3,0.8,0.9,1.1,1.2c-0.8,1.2-1.6,2.3-2.3,3.5c0.7,0.4,1.4,0.8,2.2,1.1c0,0.2,0,0.3,0,0.5c-3.4,0.2-6.7,0.3-10.7,0.5
			c2.7-3.3,3.1-6.6,2.7-10c-0.2-1.5-0.8-2-2.4-1.8c-4.1,0.6-7.6,3.5-8.3,7.1c-0.1,0.5-0.3,1.2-0.1,1.6c0.8,2-0.1,2.5-1.9,2.5
			c-0.4,0-0.7,0.1-1.7,0.2c1.4-3.6,2.7-6.8,4-9.9c0.4-1,1.1-2,1.6-2.9C291.4,185.1,299.6,183.8,305.1,185.3z M299.4,243.3
			c-3.3,2.1-6.6,4.1-10.4,5c-2.1,0.4-4.1,1.1-6.6,1.8c3.2-5.5,3.9-11.1,3.5-16.9c-0.1-1.6-0.4-3.1-0.6-4.7c-0.1-0.8-0.1-1.9,0.3-2.3
			c1.2-0.9,2.3-2.2,4.2-1.7c2.4,0.6,4.2,2.1,5.7,4c3,4,3.9,8.8,4.6,13.5C300.1,242.4,299.7,243.1,299.4,243.3z M317.5,230.6
			c-4.7,3.4-9.4,6.8-14,10.1c-1.4,1-1.8,0.9-1.9-0.6c-0.5-6.8-3-12.7-8.1-17.4c4.4-1.9,12.2-1.5,28.1,4.6
			C320.2,228.5,318.9,229.6,317.5,230.6z M333.7,218.5c-1.6,1.1-3.3,2.3-4.8,3.5c-0.9,0.8-1.6,0.9-2.7,0.3
			c-5.5-2.8-11.2-5.2-17.2-6.7c-1.4-0.3-1.5-1-0.8-2c0.5-0.6,0.9-1.3,1.6-1.6c3.8-1.9,6.7-4.7,9.4-7.9c3.3-3.7,6.8-4,9.8-2.6
			c3.2,1.5,6.4,3.1,9.5,4.9c2.3,1.3,4.4,3.1,6.5,4.6C341.2,213.5,337.5,216,333.7,218.5z M314.1,198.2c0.5-3.3,0.9-6.1,1.4-9
			c1.4,0.3,2.9,0.6,4.8,1C318.2,192.9,316.3,195.4,314.1,198.2z M336.6,224c4.4-3.4,8.2-7.3,14.5-7.6
			C347.4,220.6,340.2,224.4,336.6,224z M343.5,191.9c-0.9,1.9-1.9,3.8-2.6,5.7c-0.7,2.1-0.5,4.2,0.7,6.2c0.5,0.8,1.2,1.2,1.7,0
			c0.6-1.3,1.1-2.7,1.6-3.8c0.7,1,1.2,2.3-0.5,3.5c-0.5,0.3-0.7,1.2-1.1,1.8c4.8,1.8,10.1-0.5,11.9-5.4c0.7-2,0.9-4.3,1.3-6.5
			c0.1-0.8-0.1-1.6,0.1-2.4c0.1-0.4,0.6-0.8,1-1.2c0.2,0.3,0.5,0.5,0.6,0.9c1,2.5,3,3.5,5.8,3.5c-2.4,2.2-4.8,4.1-6.7,6.3
			c-2,2.3-3.7,4.9-5.3,7.5c-1,1.6-2.9,2.4-4.5,1.3c-2.5-1.7-4.9-3.5-7.4-5.2c-2.3-1.6-4.6-3.4-7.1-4.7c-2.4-1.3-5-2.1-7.5-3.1
			C330.2,190.4,339,189.2,343.5,191.9z M331.9,174.5c-1.5,1.5-2.3,3.3-2.7,5.4c-0.1,0.6-0.6,1.2-1,1.7c-1.1,1.1-2.3,1.9-3.3,3.1
			c-0.8,0.9-1.6,1.1-2.7,1c-5.2-0.4-9.9-2.2-14.4-4.6c-0.4-0.2-0.8-0.6-1.2-0.7c-1.6-0.5-1.3-1.3-0.6-2.5c0.6-1,1-2.1,1.3-3.3
			c0.6-2.2,1.7-4.1,3.3-5.6c0.7-0.7,1.7-1.1,2.6-1.4c3.8-1.2,7.7-1.7,11.5-2.6c1.7-0.4,3.6-0.3,5.6-0.4c-1.7,1-3.6,0.3-4.8,1.8
			c-0.1,0.1-0.5,0.1-0.7,0c-2.5-0.7-4.8-0.1-6.9,1.3c-0.4,0.2-1.1-0.2-1.6,0c-1.2,0.3-2.4,0.8-3.6,1.1c0.6,1,1,2.1,1.8,2.9
			c3.6,3.7,8.9,4.6,14.3,2.2c1.9-0.8,3.5-2.1,5.3-3.1c0.1,0.1,0.2,0.1,0.3,0.2C333.6,172.2,332.9,173.5,331.9,174.5z M364.6,160.8
			c0.2,1.9-0.7,3.1-1.9,4.3c-5.1,5.3-11.6,8.2-18.5,10.1c-3.3,0.9-6.7,1.9-10.3,2.9c0.7-2.5,2.7-3.2,4.4-3.8c4.4-1.4,8-4.1,11.4-7.1
			c0.7-0.6,1.3-1.5,2.3-0.4c0.1,0.1,0.9-0.4,1.4-0.6c0.1,0,0.1-0.3,0.1-0.4c-0.1-2,0.7-3.3,2.5-3.5c-0.6,1.2-1.2,2.6-1.8,4
			c-0.4,1,0.1,1.4,1.2,1.3c4.1-0.3,8.3-4.8,8.5-9.2c0-1.2-0.1-2.4,0.1-3.6c0-0.4,0.7-0.7,1-1c0.1,0.4,0.2,0.8,0.2,1.2
			C364.9,156.9,364.4,158.8,364.6,160.8z M373.2,152.8c-1.9-0.9-3.6-1.7-5.2-2.7c-0.4-0.2-0.7-1.2-0.5-1.7c0.8-2.1,2.3-3.7,4.4-5.1
			C373.3,146.5,373.9,149.6,373.2,152.8z M326.3,115.9c0.3-0.2,0.8-0.2,1.2-0.3c0,0.2,0,0.5-0.1,0.7c-0.1,0.3-0.3,0.6-0.5,0.8
			c-1.1,0.6-2.2,1.1-3.6,1.8c3.1,2.8,6.2,3.5,9.7,2.3c3.3-1.1,5.4-3.8,7.1-6.3c0.8,1.8,1.6,3.7,2.4,5.5c0.2,0.4,0.6,0.8,0.9,1.1
			c0.5,0.3,1.1,0.6,1.7,0.8c0.2-0.6,0.5-1.1,0.6-1.7c0.3-1.6,0.4-3.2,0.6-4.8c0.2,0,0.5,0.1,0.7,0.1c-0.2,1.4-0.4,2.7-0.6,4.1
			c-0.1,0.8-0.1,1.6,0.3,2.2c0.2,0.3,1.4,0.1,2-0.2c1-0.5,1.9-1.1,2.7-1.8c0.9-0.8,1.2-0.7,1.9,0.3c0.9,1.3,2,2.4,3.2,3.3
			c0.6,0.5,1.6,0.5,2.4,0.7c0-0.9,0.4-1.8,0.1-2.6c-1-3,0.3-6-0.5-8.9c0.2,0,0.4-0.1,0.6-0.1c0.1,0.4,0.3,0.9,0.4,1.4
			c0.2,1.8,0.3,3.7,0.4,5.6c0,1-0.2,2-0.2,3c0,1.3,0.5,2,1.9,1.2c0.7-0.4,1.4-0.7,2-1.2c1.9-1.7,3.1-4,5.2-5.5
			c1-0.7,1.2-2.4,1.6-3.6c0,0.1,0.1,0.6,0.3,0.7c0.3,0.1,0.7-0.1,1.1-0.2c-0.7,0.5,0.2,1.5-0.8,2.1c-1.3,0.8-3,1.6-1.9,3.8
			c0.1,0.1-0.5,0.8-0.9,0.9c-4.2,1.5-6.1,5-5.2,9.4c0.7,3,2.5,5.3,4.6,7.3c0.5,0.4,1,0.8,1.4,1.3c2.4,2.6,2.3,2.5-0.1,5.1
			c-1.3,1.4-2.4,3.1-3.2,4.9c-0.5,1.1-1.3,1.7-2.2,1.7c-0.5,0-0.9-1-1.4-1.5c-0.1-0.1-0.1-0.1-0.1-0.2c-2.7-5.3-1.9-5.1-6.8-2
			c-4.4,2.7-7.3,6.8-7.2,12.4c0,0.8,0,1.7,0.4,2.3c0.9,1.7,0.2,2.6-1.1,3.6c-2.9,2.4-5.7,5-9.9,5.9c0.8-2.3-0.2-4.7,1.5-6.7
			c0.8-0.9-0.1-1.4-0.7-1.9c-2.4-1.9-4.9-3.7-7.4-5.6c-0.3-0.2-0.6-0.4-1-0.7c6.8-2.2,9.7-6.5,9-13.7c-0.5-5.7,1.5-10.4,4.9-14.7
			c1.1-1.4,2.4-2.7,3.5-4.2c-3.8,2-6.7,4.9-8.5,8.8c-1.2,2.6-1.7,5.4-2.6,8.1c-0.2,0.7-0.6,1.3-1,2l0.1-0.1
			c-0.8,2.8-2.8,4.5-5.3,5.7c-0.8,0.4-1.7,0.6-2.2,1.3c-1.1,1.4-2.3,1.1-3.5,0.4c-1.8-1-3.5-2.2-5.2-3.3c-3-1.8-5.9-3.7-9-5.3
			c-1.2-0.6-1.7-1.6-1-2.4c2.2-2.4,3.7-5.6,7.2-6.6c1.2-0.3,2.4-0.7,3.7-1c4.4-1.3,5.4-4.9,2.4-8.4c-0.9-1-1.7-2.1-2.1-3.4
			c-0.8-2.1-0.5-2.5,1.8-3.6c0.1,0.3,0.2,0.6,0.3,0.9c0.1,1.1,0.6,1.4,1.5,0.7C324.8,117.1,325.5,116.4,326.3,115.9z M328.8,151.2
			c2.4-2.2,4.7-4.3,6.8-6.1C335,149,333,151,328.8,151.2z M315.6,130.6c1-4.2,1.7-8,3.4-11.7c1.1,2.2,2.2,4,3.1,5.9
			c1,2,0.4,3.8-1.7,4.7C319,130,317.5,130.2,315.6,130.6z M287.6,134.4c0.3-1.3,0.1-2.7,0.4-4c0.2-0.7,0.6-1.7,1.3-2
			c1.4-0.7,0.9-1.4-0.3-2.4c1.4,0.4,2.2,0.7,2.4-0.8c0.3-2.3-0.1-4.4-1.5-6.3c-0.4-0.5-0.8-1-1.1-1.5c-0.1-0.3,0-0.8,0.2-1.1
			c0-0.1,0.5,0,0.8,0.1c0.3,0.1,0.6,0.2,0.9,0.3c0.9,0.4,1.3,0.3,1.3-0.9c-0.1-3.1-0.2-6.1-0.3-9.2c0-1.1,0-2.1,0-3.2
			c0.2,0,0.4,0,0.6,0c0,1.8,0,3.6,0,5.4c0,2.2,0.8,4.2,0.5,6.5c-0.2,1.6,0.7,1.6,1.9,1c4.2-1.9,6.8-7.3,5.4-12.3
			c-0.7-2.6-2.1-5.1-3.6-7.4c-0.9-1.5-1-2.4,0.3-3.6c3.4-3.5,7.4-6,11.6-8.2c2.1-1.1,4.4-0.4,6.3,0.8c2.5,1.7,4,4.2,5.4,6.8
			c0.6,1.1-0.2,1.6-0.7,2.2c-2.5,2.8-3.7,6-3.3,9.8c0.3,2.3,1.2,4.3,3.1,5.7c0.8,0.6,1.4,0.6,1.6-0.6c0-0.2,0.1-0.5,0.1-0.7
			c-0.1-2.1,0.9-3.8,2-5.5c-0.4,1.8-0.7,3.5-1.2,5.3c-0.6,2.3-0.6,2.4,1.8,2.2c0.2,0,0.4,0.1,0.6,0.1c-0.5,1.2-0.8,2.4-1.4,3.6
			c-0.3,0.5-0.9,1-1.5,1.3c-0.9,0.3-1.6,0.4-2,1.7c-1,3.2-2.4,6.3-3.6,9.5c-0.8,2.2-1.6,4.3-4,5.5c-2.3,1.2-4,3.3-5.1,5.8
			c-0.3,0.6-1,1.4-1.4,1.3c-0.6-0.1-1.2-0.8-1.6-1.3c-1.1-1.4-1.8-3.3-3.2-4.4c-2.9-2.4-4.6-5.4-5.7-8.8c-0.2-0.6-0.4-1.2-0.6-1.8
			c-0.2,0-0.3,0.1-0.5,0.1c0.4,1.7,0.7,3.5,1.3,5.2c0.6,1.7,1.3,3.4,2.1,5c0.9,1.6,2.1,3.1,3.3,5c-1,0.1-1.6,0.1-2.1,0.2
			c-2.4,0.2-4.9,0.5-7.3,0.7c-0.5,0-1.3,0.1-1.4-0.1C288.4,137.8,287,136.5,287.6,134.4z M296.8,147.1c-0.6,2.4-1.9,4.4-3.3,6.4
			c-3.3,4.5-4.9,9.7-6,15.1c-0.3,1.4-0.6,1.7-2.1,1.6c-2-0.2-4.1,0.2-6.2,0.4C281.1,160.8,288.3,149.1,296.8,147.1z M277.2,177.5
			c0.8-2.5,6.5-4.9,8.9-3.9c0.3,0.1,0.7,0.3,0.7,0.5c0.2,1.3,0.1,2.7,0.5,4c0.4,1.6-0.7,2.3-1.6,3.1c-0.1,0.1-0.1,0.1-0.2,0.2
			c-2.3,4.3-6.2,3.2-10.1,3.4C276,182.1,276.5,179.8,277.2,177.5z M274.2,170.3c0.2,3.5-4.4,15.6-6.7,16.9
			C268.8,180.9,269,174.7,274.2,170.3z M233.2,87.2c0.5-1,1.2-0.6,2-0.4c2,0.5,4,0.8,5.8,1.2c-8.1,6.7-9.8,13.9-4.1,19.1
			c0.8-1.9,1.5-3.7,2.2-5.4c0.5,0.4,1.2,0.9,1.8,1.3c-0.8,0.8-1.7,1.7-2.4,2.7c-1,1.5-0.8,2.1,0.9,2.1c2.1-0.1,2.4,0.8,2.2,2.7
			c-0.3,4.2,0.9,7.9,4.7,10.2c0.6,0.4,1.2,0.8,1.9,0.9c1.1,0.1,2.2,0,3.2-0.1c-0.2-0.8-0.5-1.6-0.8-2.6c1.2,0.7,1.6,3.1,3.2,1.1
			c0.6,1.7,1.1,3.3,1.6,4.8c0.9,2.5,0.1,4.7-2.4,5.5c-2.2,0.8-4.6,1.3-6.9,1.7c-0.3,0.1-1.1-0.7-1.3-1.2c-1-3.1-2-6.2-3-9.3
			c-2.1-6.5-5.4-12.3-10.7-16.8c-1.6-1.4-2.1-3-2.1-5C229,95,231.2,91.1,233.2,87.2z M240.3,152.8c-0.4-0.2-0.6-0.8-0.7-1.3
			c-0.6-1.9-1.1-3.8-1.6-5.7c-0.7-2.7,0.6-6,3.2-8c2.1,6.7,4.1,13.3,6,19.3C245.2,155.9,242.7,154.4,240.3,152.8z M243.4,174.1
			c-1-5.6-1.9-10.9-2.9-16.5C247.2,161.6,248.5,169,243.4,174.1z M226.6,132.8c4.6-1.7,8.8-1.8,12.8,1.4c0.9,0.7,0.7,1.2,0,1.8
			c-1.4,1.3-2.6,2.7-3.9,4C232.6,137.7,229.7,135.3,226.6,132.8z M234.3,151c-4.8-2.2-8.1-5.4-11.2-8.8c-0.8-0.9-1.5-1.8-2.1-2.8
			c-0.4-0.7-2-1.2-0.7-2.5c1.7-1.7,2.4-1.9,4-0.9C229.5,139.5,232.8,144.3,234.3,151z M209.6,105.9c0.7-2.2,1.6-4.4,2.6-6.5
			c0.2-0.4,1.3-0.7,1.7-0.5c5.3,2.4,10.8,4.6,14.9,9.1c4,4.5,6.7,9.7,8.7,15.4c0.6,1.8,1.2,3.5,1.8,5.6c-5.6-1.9-10.7-1.1-15.6,1.4
			c-0.5,0.3-1.3,0.1-1.9,0c-0.5-0.1-1-0.5-1.5-0.7c-3-1.7-2.9-1.6-1.6-4.8c2-4.8,0.7-9.2-2.6-13c-1.5-1.8-3.6-3-5.5-4.5
			C210.2,107,209.5,106.3,209.6,105.9z M176.4,130.2c-2.9-4.3-1.3-11.4,3-14.1c0.9-0.6,1,0,1.3,0.6c1.1,2.5,2.6,4.7,5,6.2
			c2.1,1.4,4.4,1.6,6.8,1.4c3.3-0.2,5.2-4,4.5-6.5c-0.5-2-1.5-3.9-2.3-5.9c1.7-0.3,3.6-0.7,5.5-1c1.2-0.2,1.7-0.1,1.4,1.4
			c-0.5,3.3-0.5,6.6,0.7,9.8c1.9,5,6.7,7.8,12,7c0.3,0,0.8,0.2,1.1,0.5c1.1,0.9,2.2,1.8,3.3,2.7c0.4,0.3,0.9,1.1,0.8,1.2
			c-0.4,0.6-1.1,1-1.7,1.5c-0.2,0.1-0.6,0.1-0.7,0.2c-1.2,2.4-4,3.2-6.2,1.6c-0.8-0.6-1.6-1.2-2.4-1.8c-0.3,0.3-0.6,0.7-1,1
			c0.9,1.2,1.7,2.4,2.7,3.7c-0.6,0.2-1.4,0.5-2.1,0.7c-3,0.7-5.2,2.5-7.4,4.6c-0.8,0.7-0.8,1.4-0.1,2.2c2.7,3,5.6,5.6,9.7,6.6
			c3.7,1,8-0.4,10.2-3.4c0.4-0.5,0.8-1.4,0.6-1.9c-0.2-0.5-1.1-0.7-1.8-0.8c-1.8-0.3-3.7-0.6-5.5-0.8c-1.8-0.2-3.7-0.3-5.5-0.9
			c1.8,0.2,3.6,0.3,5.4,0.5c2.4,0.2,4.8-0.1,7.1,0.8c1,0.4,1.1-0.2,0.9-1c-0.5-2.2-2-3.7-3.8-5c-0.5-0.3-1.1-0.6-1.7-1
			c0.5-0.4,0.9-0.7,1.3-1.1c0.8-0.9,1.3-0.6,1.9,0.4c3,5,6.6,9.7,11.8,12.5c3.7,2,4.3,4.7,4.5,8.2c0.2,5.9,0.7,11.9,1.1,17.8
			c0.1,1.1,0.3,2.2,0.3,2.9c-5.4-0.8-10.7-1.6-16-2.4c-0.7-0.1-1.6-0.6-2.1-1.2c-2.1-2.8-4.9-4.4-8.3-5c-1-0.2-2.2-0.5-2.8-1.1
			c-2.1-2.5-2.4-2.5-0.7-5.3c0.8-1.2,1.1-2.7,1.4-4.1c-1.1,1.8-2.3,3.7-3.4,5.5c-3.3-2.9-6.3-5.6-9.3-8.2c-0.9-0.8-1.9-1.5-3-2
			c-4.6-2.1-7.3-6.1-10.4-9.8c-0.5-0.6-0.6-1.5-0.7-2.2c-0.2-1.7-0.4-3.3-0.4-5c0-2.6-1-4.8-2.7-6.7
			C178,132.3,177.1,131.3,176.4,130.2z M222.8,212.8c0.3,0.4,0.3,1.6,0.1,1.7c-0.6,0.3-1.6,0.5-2.1,0.2c-1.8-0.9-3.5-1.9-5.1-3
			c-0.4-0.3-0.7-1.2-0.6-1.8c0.4-2.4,0.9-4.8,1.5-7.5c0.5,0.4,0.7,0.6,0.8,0.8c1.3,3.6,6.3,2.9,8,0.2c1.5-2.3,1.7-4.7,0.8-7.3
			c-0.5-1.3-1.1-2.4-1.6-3.7c-0.1-0.4-0.1-1.1,0.1-1.3c0.4-0.2,1.2-0.2,1.4,0c2.3,3.3,5.5,6.1,5.2,10.8c-0.2,3,0.4,6.2,0.7,9.2
			c0.2,1.3-0.1,1.7-1.4,1.5c-1.2-0.1-2.6,0-3.8,0.4c-1.5,0.5-2.1-0.2-2.9-1.2c-1.3-1.8-2.9-3.4-4.4-5c-0.3-0.4-0.9-0.5-1.3-0.7
			C219.8,208.4,221.3,210.5,222.8,212.8z M204.3,194.3c-0.1-0.1-0.1-0.3-0.2-0.4c0.9-0.5,1.7-1.1,2.6-1.6c0.9-0.5,1.8-1,2.7-1.5
			c1.5-0.8,3.1-1.6,4.6-2.5c2.8-1.7,5.6-1.1,8.3-0.3c-2.3,3.2-4.6,6.4-7.1,9.8C212.4,194,208.6,193.5,204.3,194.3z M213.5,206
			c-0.1,1.1-0.3,2.4-0.5,4c-2.4-1.6-4.5-3-6.8-4.4C208.7,205.7,210.9,205.9,213.5,206z M210.4,174c2.8,0.6,4.7,1.9,6.5,4.1
			C212.9,178.8,212.9,178.8,210.4,174z M168.7,176.3c1-1.6,1.6-3.3,2.4-5c5.8,5.6,11,6.4,13.8,1.9c-1.4-0.3-2.6-0.6-3.8-0.9
			c0.4-0.7,0.9-1.3,2.1-0.4c0.5,0.4,1.3,0.5,2.1,0.7c0.5-3.7-1.4-6-4-7.9c1.3-0.9,1.4-1.7,0.4-3.3c-0.4-0.6-0.7-1.1-1-1.7
			c0.5-0.3,1.1-0.5,1.6-0.8c0.2-0.1,0.4-0.4,0.3-0.4c0.2,1.3,0.3,2.7,0.7,4c0.2,0.9,1,1.1,1.6,0.3c0.8-1,1.5-2,2-3.2
			c0.5-1.1,0.9-1.2,1.9-0.6c6.7,4.3,12,10,16,16.9c0.6,1,1.1,2.1,1.6,3.1c-1.1,0.4-2.2,0.7-3.3,1.1c-2.3,0.8-4.7,1.5-7,2.4
			c-1.4,0.6-1.9,0.4-2.1-1.2c-0.6-5.7-3.2-10.4-7.8-13.9c-0.3-0.2-0.6-0.4-1.1-0.3c1.4,1.9,2.8,3.7,4.1,5.7c1.9,3,2.8,6.3,2.5,9.9
			c-0.1,1.1-0.4,1.9-1.6,2.4c-1.8,0.8-3.6,1.6-5.4,2.5c-1,0.5-1.7,0.4-2.6-0.2c-4.3-3.1-8.6-6.2-13-9.2
			C168.2,177.7,168.1,177.3,168.7,176.3z M202.9,203.1c-4.5-3.4-8.6-6.4-12.7-9.5c2.1-1.4,3.8-1.7,5.9,0c1.3,1,3.3,1.1,4.9,1.5
			C198.3,198,202.2,199.9,202.9,203.1z M162.9,186.2c-1.3-0.8-0.4-1.8,0-2.7c0.4-1,1.2-0.5,1.8-0.2c3,1.8,5.8,3.9,8.3,6.5
			C169.2,189.5,165.9,188.1,162.9,186.2z M195.7,214.2c-3-1.4-6.4-2.3-9.6-3.2c-6.2-1.7-11.6-4.6-16-9.3c-1.3-1.4-2.7-2.6-4.6-4.4
			c2.5-0.3,4.5-0.6,6.5-0.7c2.4-0.2,4.9-0.2,7.3-0.3c0.6,0,1.4,0.2,1.9,0.6c6.8,5.7,13.5,11.4,20.3,17.1
			C199.7,214.6,198,215.2,195.7,214.2z M207.1,220.6c-1.8,0.5-2.8-0.4-3.8-1.6c-1-1.1-2.2-1.9-3.6-3.1c2.6-1,4.8-0.8,7,0.8
			c1.4,1,3,1.7,4.7,2.6C210,220.4,208.5,220.2,207.1,220.6z M229,237.4c-6.7,0.4-12.3-1.9-16.5-7.2c-1.2-1.5-2.3-3-3.5-4.5
			c-0.7-0.9-0.4-1.3,0.7-1.6c2.1-0.5,4.1-1.3,6.1-1.9c0.6-0.2,1.4-0.3,2-0.1c5.7,2.1,11.4,4.3,17.1,6.3c2.8,1,4.9,2.4,5.4,5.6
			c0.1,0.9,0.6,1.7,0.9,2.5C236.8,236.9,232.9,237.2,229,237.4z M246.9,219.7c-0.8-0.1-1.8,0-2.4-0.5c-0.8-0.6-1.3-1.5-1.9-2.4
			c-3.7-5.7-5.8-11.7-4.2-18.6c0.2-0.1,0.4-0.2,0.7-0.2c1.5,2.5,3.2,4.8,4.5,7.4c2,3.9,3,8.1,3.5,12.5
			C247,218.5,246.9,219.1,246.9,219.7z M253.7,190.1c-0.4,2.6-0.3,5.3-0.5,7.9c-0.2,0.1-0.3,0.2-0.5,0.2c-1.4-2.5-3.1-4.9-4.3-7.4
			c-1.2-2.6-1.8-5.4-2.8-8c-0.4-1.1-0.1-2,0.5-2.8c1.3-1.8,2.5-3.6,3.8-5.5c1.9-2.8,2.6-5.7,1.7-9c-0.1-0.4-0.1-0.8-0.1-1.5
			c1.7,2.2,2.6,4.4,2.8,6.8C255,177.2,254.7,183.7,253.7,190.1z M261.5,162.6c-3-1.6-5.2-4.2-6.9-7c-3.8-6.1-6.1-12.9-8.2-19.7
			c-0.1-0.4,0.1-1.4,0.4-1.5c1.7-0.7,3.5-1.2,5.3-1.8c0.1,0.1,0.3,0.3,0.4,0.4c-2.5,3.2-3.3,6.8-2.4,10.7c0.4,1.7,1.3,3.2,2.9,4.2
			c1.7-1.9,1.8-4,1.6-6.3c0.8-0.4,0.1,2.6,1.5,0.6c0,0,0.2,0.1,0.4,0.2c-0.8,0.6,1,1.8-0.5,2.4c-0.5,0.2-0.9,1.1-1.2,1.7
			c-0.8,1.9-0.6,2.4,1.4,2.3c1.7-0.1,1.9,0.6,1.9,2c0.1,3.7,1.3,7.1,4.7,9c1.4,0.8,3.2,1.1,4.7,1.5
			C266,163.5,264.1,163.9,261.5,162.6z M267.2,211.9c0.3-3.7-1.6-7.1,1-10.2c-0.6,2.7-0.7,5.4,0.5,8
			C269.1,210.7,268.4,211.1,267.2,211.9z M274.2,189c0.2-0.5,0.9-1,1.5-1.2c1.7-0.4,3.4-0.6,5.4-0.9c-1.2,2.4-1.8,4.6-4.4,5.6
			c-1.8,0.6-3.3,2.1-5.1,3.3C272.5,193.6,273.3,191.3,274.2,189z"/>
		<path class="st1" d="M193.4,90.8c-0.9,0.4-1.1-0.2-1.4-1c-0.9-2.5-1.8-5.1-3.1-7.4c-0.8-1.3-0.5-1.6,0.5-2.6
			c1.4-1.3,2.6-3,3.5-4.7c0.8-1.4,0.2-1.9-1.4-1.7c-2.3,0.3-4.6,0.7-6.9,1c0-0.2-0.1-0.4-0.1-0.7c0.7-0.1,1.6,0,1.9-0.3
			c1.2-1.2,2.5-0.7,3.8-0.7c0.8,0,1.7-0.4,2.5-0.6c-0.3-0.8-0.5-1.8-1.1-2.5c-2-2.9-5-4-8.3-4.5c-0.5-0.1-0.9-0.3-1.4-0.5
			c-0.6-0.3-1-0.8-1.6-0.9c-1.6-0.3-3.3-0.4-5-0.6c3-0.4,5.9-0.4,8.8-0.4c1.2,0,1.7-0.4,1.1-1.5c-0.5-1.1-1.2-2-1.6-3.1
			c-0.2-0.4,0.1-1,0.3-1.5c0-0.1,0.6,0,0.9,0.1c0.2,0.1,0.5,0.4,0.6,0.6c0.3,1.6,0.6,3.2,1,5.2c1-0.8,1.6-1.2,2.1-1.8
			c2.4-2.7,2.5-5.9,2.1-9.2c-1-6.6-8.4-12.2-14.7-13.1c-0.5-0.1-1.4,0.7-1.6,1.2c-1.7,5-2.8,10.1-0.9,15.3c0.5,1.3,0,1.5-1.1,1.9
			c-1.6,0.5-3.2,0.9-4.7,1.7c-3.1,1.7-3.3,2.5-0.8,5c1.8,1.8,4,3.3,6.1,4.9c-2.2,2-2.2,2-5.1,0.3c-0.1-0.1-0.3-0.2-0.4-0.3
			c-1.2-0.8-2.1-0.7-3,0.6c-2.7,3.9-3.9,8.1-3.3,12.8c0.5,3.8,2.5,6.7,5.9,8.4c1.1,0.6,2.6,0.5,3.9,0.7c-0.3-1.2-0.6-2.3-0.9-3.5
			c-0.2-0.7-0.4-1.4-0.6-2c0.3-0.1,0.5-0.1,0.8-0.2c0.7,1.8,1.3,3.6,2,5.5c2.8-1.8,4.1-4.2,4.6-7.2c0.4-2.1,0.4-2.1,2.3-1.2
			c-1,2-2.2,4-3,6.2c-1.9,5-0.1,10.5,4.1,13.3c2.1,1.4,2.5,1.3,2.9-1.3c0.3-2.2,0.6-4.4,0.9-6.7c0.1,0,0.2,0,0.3,0
			c0,1.2,0,2.3,0,3.6c0.6-0.4,1-0.6,1-0.6c-0.4,1.2-1.1,2.7-1.4,4.2c-0.4,2.1,0.2,2.6,2,1.5c2-1.3,3.7-3.1,5.6-4.6
			c5.4,4.7,12.7,4.4,14-0.8c-1.9-0.3-3.8-0.6-5.6-0.8c0-0.2,0-0.3,0.1-0.5c1.4,0.2,2.7,0.3,4.1,0.5c1.7,0.2,2-0.2,1.4-1.8
			c-0.3-0.8-0.7-1.6-1.1-2.4c-0.3-0.3-0.7-0.7-1-1C200.1,89.6,196.8,89.3,193.4,90.8z"/>
		<path class="st1" d="M144.7,105c0-0.7,0-1.5,0-2.2c0.2,0,0.5,0,0.7,0c-0.1,0.8-0.1,1.5-0.2,2.3c-0.2,1.3,0.4,1.7,1.5,1.2
			c1.4-0.7,2.7-1.6,4-2.4c0.8,0.8,1.7,1.7,2.6,2.5c4.5,3.6,9.5,5.6,15.2,3.3c3-1.2,5.2-3.2,5.5-6.7c-2.1-1.1-4,1.7-5.9,0.1
			c0.5-0.5,0.8-1.1,1.3-1.2c0.7-0.1,1.5,0.3,2.3,0.2c2.2-0.1,2.5-0.8,1.3-2.6c-2.6-4-8.4-5.6-13.1-3.4c-2.3,1.1-4.4,2.8-6.5,4.2
			c-0.6,0.4-1.1,0.9-1.9,1.7c1.2-4.2,0.2-7.5-1.7-10.7c-0.7-1.2-0.7-2-0.1-3.2c2.3-4.1,2.8-8.7,2.6-13.4c-0.1-1.4-0.7-1.7-2-1.8
			c-3.7-0.2-7.3,0.4-10.6,2c-4.3,2.1-7.3,5.2-8.5,9.9c-0.5,2.4-0.3,4.6,0.7,6.7c0.8,1.7,1,1.6,2.2,0.3c1.6-1.8,2.2-4,2.3-6.3
			c0.1,0.8,0.2,1.6,0.3,2.9c1.6-1.9,2.8-3.5,4.1-5.1c0.2-0.2,0.5-0.3,0.7-0.4c0.1,0.3,0.4,0.8,0.3,1c-0.1,0.3-0.6,0.4-0.9,0.7
			c-1.3,1.4-2.5,2.9-3.9,4.4c0.7,0.2,1.1,0.3,1.1,0.3c-1.1,0.9-2.4,1.8-3.3,2.9c-1.2,1.5-1,1.9,0.9,2.2c1.9,0.3,3.8,0.4,5.8,0.5
			c-1.9,4-1.7,7.6,1.3,11C144,106.5,144.7,106.3,144.7,105z"/>
		<path class="st1" d="M142.9,106.1C142.9,106.1,142.9,106.1,142.9,106.1C142.9,106.1,143,106.1,142.9,106.1
			C143,106.1,143,106.1,142.9,106.1z"/>
		<path class="st1" d="M142.9,106L142.9,106C143,106.1,143,106.1,142.9,106C143,106.1,142.9,106.1,142.9,106z"/>
		<path class="st1" d="M121.4,92.1c1.3-0.2,2.6-1,3.9-1.6c-1-1-1.8-2.3-3-2.8c-1.2-0.5-1.4-1.2-1.5-2.3c1.4,0.9,2.7,2,4,3.1
			c1.1,0.9,2,0.7,2.2-0.7c0.3-3,0.7-6.1,0.5-9.1c-0.1-1.8-0.7-3.6-0.6-5.6c0.2-3.7,0-7.4,0-10.7c0.6,5.9,1.1,12.3,1.7,18.7
			c5.6-1.8,8.7-6.6,8.2-12.5c-0.5-6.4-4.2-10.9-8.7-15c-1-0.9-1.6-0.2-2.2,0.4c-5,4.4-7.9,9.9-7.6,16.7c0.1,1.8-0.4,1.5-1.7,1.2
			c-2.7-0.5-5.5-0.8-8.2-1.1c-1.2-0.2-1.7,0.4-1.8,1.6c-0.7,6,0.7,11.4,4.8,15.9C114,91.2,117.4,92.6,121.4,92.1z"/>
		<path class="st1" d="M287.6,29.6c1.3,0.2,2.6-0.3,3.9-0.5c-0.7-1.1-1.1-2.5-2.1-3.3c-1-0.8-1.2-1.6-1-2.7c0.4,0.3,0.8,0.6,1.2,0.9
			c0.1-1.3,0.1-2.5,0.2-3.6c0.4,2.9,0,6,3,7.9c0.6-0.8,1.2-1.6,1.8-2.3c0.7,2,1.3,4.1,2.3,5.9c1,1.9,2.4,3.5,4.8,4.1
			c0.4-1.7,1.4-3.2,0.5-5c-0.1-0.1,0.1-0.4,0.1-0.6c2,0.5,1.1-1.2,1.3-1.8c0.4-1.8,0.6-3.6,0.9-5.4c0.2,0,0.3,0,0.5,0
			c0.1,0.4,0.4,0.9,0.2,1.2c-1.3,3.3-0.7,7-2.1,10.2c-0.2,0.5-0.1,1.2-0.2,1.8c0.7,0,1.4,0.1,2-0.1c3.4-1,5.5-3.3,6.9-6.4
			c2.9-6.4-0.2-14.9-4.8-19.4c-0.7-0.7-1.2-0.8-2-0.2c-3.1,2.2-5.8,4.7-7.7,8c-0.5,0.9-1,1.7-1.4,2.4c-0.7-1.8-1.2-3.7-2.1-5.3
			c-3.1-5.1-8.3-7.1-13.8-8.4c-0.4-0.1-1.2,0.6-1.4,1c-1.7,3.5-1.8,7.2-1.2,10.9C278.4,24.6,282.5,28.9,287.6,29.6z"/>
		<path class="st1" d="M194.5,66.4c0.4-0.5,0.9-1,1.2-1.6c0.3-0.7,0.4-1.5,0.7-2.2c0.1-0.3,0.4-0.7,0.7-0.9c0.1-0.1,0.5,0,0.7,0
			c0,0.6,0,1.2-0.2,1.8c-0.3,0.8-0.9,1.4-1.3,2.1c-0.9,1.4-0.1,1.9,1.2,1.8c2.7-0.1,5.2-0.8,7.1-2.7c1-1,1.9-2.2,2.9-3.3
			c0.5,0.7,0.9,1.3,1.3,1.9c3.6,5.3,9.2,7.9,14.9,6.6c2.2-0.5,4.1-1.5,5.3-3.6c-2.7-1.5-5.9-1.6-8-4.1c1.8,0.7,3.7,1.4,5.5,2
			c0.9,0.3,1.8,0.5,2.7,0.7c0.1-1,0.4-2,0.3-3c-0.6-5-5-9.6-10.2-10.1c-3-0.3-6-0.1-9,0.3c-1.4,0.2-1.9-0.1-2.1-1.4
			c-0.2-1.1-0.5-2.2-0.7-3.2c-0.2-1.1-0.9-1.5-2.1-1.3c-4.1,0.9-7.7,2.5-10.6,5.6c-3.5,3.7-4.3,9.6-1.9,13.2
			C193.4,65.4,194,65.9,194.5,66.4z"/>
		<path class="st1" d="M414.3,199.4c0.3,0.2,0.9,0.1,1.2-0.2c1.4-1.4,3.1-2.7,4-4.3c1.4-2.7,2.4-5.6,3.5-8.5
			c2.8,3.1,6.8,4.7,11.1,5.2c4.9,0.6,5,1.3,5.3-4.3c0-0.7,0-1.4,0-2.1c-0.7-5.3-2.6-10-7.6-12.7c-3.1-1.7-7-1.5-9.3,0.5
			c3.1,2,5.1,5.1,7.7,7.6c0.3,0.3,0.4,0.6,0.6,0.9c-0.5,0.1-0.8,0-1-0.2c-2.2-2.2-4.4-4.5-6.6-6.7c-1.3-1.3-1.5-1.2-2.2,0.5
			c-0.4,1.1-0.6,2.2-0.9,3.4c-1.2-0.7-2.4-1.6-3.6-2.2c-1.4-0.6-1.7-0.3-1.6,1.1c0.2,2.8,0.5,5.6,0.7,8.4c0.1,1.2,0,2.4,0,3.6
			c-0.4-2.2-0.2-4.6-0.9-6.7c-0.7-2.1,0.2-4.5-1.1-6.5c-3.6,1.4-5.7,4-6.3,7.7C406.2,188.9,410,196.9,414.3,199.4z"/>
		<path class="st1" d="M440.4,146.2c-0.1-1.2-0.6-1.7-1.8-1.5c-2,0.3-3.9,0.4-5.8,0.9c-1.2,0.3-2.2,0.4-3.4,0
			c-5.4-1.7-10.7-1.6-15.6,1.2c-3.9,2.2-6.3,5.5-6.4,10.1c0,1.1,0.5,2.3,0.8,3.4c1-0.7,2.5-1.1,3-2.1c1.1-2,3.4-1.6,4.9-2.8
			c-0.9,0.8-1.8,1.6-2.9,2.6c1.6,0.1,2.8,0.1,3.9,0.2c-0.8,0.2-1.6,0.2-2.3,0.4c-1.6,0.4-3.3,0.3-4.6,1.6c-1.2,1.3-1.3,1.7,0.3,2.5
			c4,2,7.9,1.8,11.8-0.2c1.8-0.9,2.6-0.9,3.8,0.4c0.2,0.2,0.7,0.3,1.1,0.4c3,0.9,5.7-0.3,8.4-1.4c0.1-0.1,0.2-0.3,0.4-0.4
			C440,157.1,440.9,151.8,440.4,146.2z"/>
		<path class="st1" d="M160.7,141.7c0.3,2.6-0.2,5.4,2.4,7.7c0.7-1.2,1.7-2.3,2-3.5c0.9-3.2,0.7-6.3-1.1-9.2
			c-3.1-5-7.8-7.5-13.5-8.3c-1.4-0.2-2.7-0.2-2.9,1.3c-2.5-1.8-4.9-3.7-7.5-5.6c-0.8-0.6-1.7-0.7-2.4,0.4c-2.8,4.7-3.9,9.6-1.3,14.7
			c1.4,2.7,3.7,4.3,6.7,4.7c1.1,0.1,1.5-0.4,1.1-1.4c-0.4-0.8-1-1.6-1.5-2.4c-0.1-0.3,0.1-0.8,0.1-1.2c0.4,0.1,1,0.1,1.3,0.4
			c0.2,0.2,0,0.8,0.1,1.1c0.3,0.9,0.7,1.7,1.1,2.6c0.7-0.5,1.4-0.9,2.1-1.3c0.1-0.1,0.3-0.1,0.5-0.2c0.3,0.7,0.5,1.3,0.8,2
			c1.7,4.1,6.3,7,10.8,6.8c2.2-0.1,2.6-0.6,1.4-2.5c-1-1.6-1.8-3.2-2.4-5.5c0.8,0.9,1.2,1.4,1.8,2.2
			C160.5,143.3,160.6,142.5,160.7,141.7z"/>
		<path class="st1" d="M104,115.7c3.4,0.9,7.1,1,9.9-2.1c-1-1-2-1.9-3-2.9c-1.9-2.4-5-2.2-7.5-3.5c0.8-0.1,1.5-0.1,2.2,0.1
			c1.6,0.4,3.2,1.3,4.7,1.2c1.3-0.1,2.3,0.2,3.3,0.7c0.2,0.1,0.5,0,0.7,0.1c1.9,0.3,3.8,0.6,5.7,0.9c3.3,0.4,6.4,0.1,8.6-2.7
			c1-1.3,0.9-1.6-0.7-1.9c-1.9-0.3-3.7-0.7-5.6-1c0-0.2,0.1-0.4,0.1-0.6c1.5,0.3,3,0.7,4.6,0.9c0.8,0.1,1.5,0,2.3,0
			c0-0.8,0.1-1.7-0.2-2.5c-1.4-3.7-4.2-5.7-8.1-6c-3.2-0.3-6.2,0.3-8.9,1.9c-1.4,0.8-2.7,0.9-4.3,0.6c-5.8-1.4-10.9,0.5-15.9,3.2
			c-0.7,0.4-1,0.8-0.7,1.7C93.7,109.7,97.7,114.1,104,115.7z"/>
		<path class="st1" d="M227.9,51c1.7,0.8,2.5,0.3,2.1-1.6c-0.6-2.9-0.3-5.7-0.4-8.6c0-2.7,0-5.3,0-8c0.2,0,0.5,0,0.7,0
			c-0.8,2,0.6,3.8,0,6c-0.4,1.8-0.4,4,0.4,5.6c0.6,1.1,0.3,1.7,0.2,2.6c-0.1,0.7,0,1.4,0.1,2.1c0.3,2.4,0.5,2.5,2.7,1.3
			c5-2.8,7.8-8.5,6.8-14.3c-1-5.9-4.3-10.6-8.5-14.8c-0.7-0.7-1.4-0.9-2.2-0.1c-1.9,1.9-4,3.7-5.5,5.8c-3.4,5.1-4.9,10.6-2.8,16.7
			C222.5,47.1,224.7,49.6,227.9,51z"/>
		<path class="st1" d="M274.6,82.9c3.7,0.5,7.4-1.5,9.3-4.9c1.6-2.9,1.8-6,1.9-9.2c0-1,0.4-2.1,0.8-3c1.1-2.8,2.3-5.5,3.4-8.3
			c0.4-1.1,0-1.6-1.1-2.1c-2.9-1.2-5.8-1.5-8.8-1.2c-4.3,0.5-8.1,2.3-10.4,6.2c-1.4,2.4-1.8,5-0.6,8c1.2-1,2.4-1.7,3.2-2.7
			c0.6-0.8,1.2-0.7,2-0.6c0.6-0.4,1.2-0.9,1.9-1.3c0.6-0.4,1.3-0.8,1.9-1.1c0.6-0.3,1.4,0,2.2,0.1c-0.3,0.6-0.4,1.2-0.8,1.7
			c-0.6,0.8-1.4,1.5-2.1,2.2c-0.4-0.1-0.8-0.1-1.2-0.2c-2.1-0.3-4,0.2-5.6,1.8c-0.3,0.3-0.4,1.2-0.3,1.2c2.1,1.1,1.2,2.5,0.5,3.9
			c-1,1.9-1.2,3.8-0.5,5.7c0.3,0.9,1,1.7,1.5,2.6c0.6-0.6,1.1-1.1,1.7-1.7c0.1,0.1,0.2,0.1,0.2,0.2c0,0.2,0,0.3-0.1,0.5
			C272.6,82.6,272.6,82.6,274.6,82.9z"/>
		<path class="st1" d="M393.6,211.4c-1.5,0-3,0.2-4.5,0.4c-0.6,0.1-1.1,0.7-1.7,0.8c-1,0.1-2-0.2-3-0.2c-2.4,0.1-2.6,0.6-1.3,2.7
			c3,4.9,7.5,6.9,13.1,6.3c6.1-0.6,10.6-4.1,14.8-8.2c1.4-1.3,1.2-2.2,0.1-3.5c-3.8-4.3-8.3-7.1-14-7.8c-5.7-0.7-10.7,0.9-14,6
			c-0.5,0.7-0.8,2.1-0.4,2.5c0.5,0.6,1.9,1.1,2.6,0.8c2.5-0.9,5.1-0.1,7.6-0.5c1.3-0.2,2.7-0.6,4-0.5c1.9,0.1,3.8,0.7,6.3,1.2
			C399.6,211.4,396.6,211.3,393.6,211.4z"/>
		<path class="st1" d="M406.6,97.6c0.9,0.2,1.8,0.1,2.8,0.1c-0.1-0.8-0.1-1.6-0.4-2.4c-0.4-1.1-1-2.2-1.4-3.3
			c-0.6-2.2-1.1-4.4-1.6-6.6c-0.2-1-0.4-2.1-0.6-3.2c0.2,0,0.3,0,0.5-0.1c0.8,2.8,1.6,5.6,2.4,8.4c0.4,1.4,0.9,0.7,1.2,0.4
			c0.2,1.4,0.3,3.1,0.8,4.5c0.6,1.9,1,1.9,2.6,0.6c3.7-3.3,5.1-8.9,3.4-13.7c-2-5.6-6.2-9.2-11-12.3c-1.6-1-2.4-0.6-3.3,0.7
			c-3.2,4.6-4.9,9.6-4.4,15.2C397.9,91.6,401.6,96.2,406.6,97.6z"/>
		<path class="st1" d="M352.6,52c1.8-1.4,3.5-2.7,5.5-3.6c0.6-0.3,1.2-0.6,1.8-0.9c0.1,0.1,0.1,0.2,0.2,0.4
			c-1.3,0.9-2.6,1.8-4.1,2.9c0.8,0.2,1.4,0.3,2.2,0.4c-4.3,1.1-4.3,1.1-6.3,2.9c4.1,4.2,11.3,4.1,16-0.1c3.9-3.4,5.8-8,7-12.9
			c0.1-0.5-0.4-1.4-0.8-1.6c-6.5-2.9-14.5-2.5-19.7,2.1c-2.8,2.5-4.4,5.6-4.1,9.4C350.4,53,350.9,53.2,352.6,52z"/>
		<path class="st1" d="M85.3,180.1c3.9,0.3,7.6-0.6,10-4.1c0.7-1,0.5-1.5-0.7-1.8c-2.2-0.5-4.6-0.3-6.7-1.4c-1.6-0.8-3.6-1-5.3-1.5
			c0-0.2,0.1-0.3,0.1-0.5c2.9-0.3,5.3,1.9,8.4,1.7c-0.6-0.8-1.1-1.4-1.6-2c3.4,2.7,3.6,2.7,5.5,3c1.1,0.2,1.5-0.2,1.3-1.2
			c-0.1-0.5-0.2-1.1-0.3-1.6c-1.4-5-5.9-8.5-11.2-8.8c-5-0.3-9.5,1.3-13.8,3.7c-1,0.5-0.9,1.2-0.6,2C72.4,173.3,78,179.6,85.3,180.1
			z"/>
		<path class="st1" d="M435.6,161.8c-0.7,0.9-1.4,1.7-1.9,2.6c-0.6,1-0.7,1.8,0.9,1.7c1.4-0.1,2.8-0.2,4.1-0.3c0.2,0,0.6-0.1,0.6,0
			c0.3,2.2,2.2,1,3.3,1.3c1.7,0.5,3.5,0.6,5.3,0.9c0,0.2-0.1,0.3-0.1,0.5c-0.8,0.1-1.9,0.5-2.5,0.2c-3.3-1.9-7-0.6-10.4-1.4
			c-1.9-0.4-2.1,0.1-1.6,1.9c1.3,4.5,5.9,8.2,11,8.3c5.6,0.1,10.5-2.1,14.8-5.6c0.3-0.2,0.4-1,0.3-1.3c-2.5-5.8-9.6-11.5-16.3-11.3
			c-2.7,0.1-4.9,1.2-7.2,2.1C435.8,161.5,435.7,161.6,435.6,161.8z"/>
		<path class="st1" d="M344.1,60.1c0.9,0.6,1.8,1.2,2.6,1.7c-0.1,0.1-0.1,0.3-0.2,0.4c-0.6-0.2-1.2-0.3-1.7-0.6
			c-1.3-0.7-1.8-0.3-1.9,1.1c-0.6,4.6,1.6,9.1,5.6,11.5c4.7,2.8,9.9,2.5,15,1.9c1.6-0.2,2-0.8,1.9-2.3c-0.4-5.1-2.3-9.5-6-13.1
			c-3.2-3.1-7.1-4.1-11.4-3.3C346.5,57.9,345,58.5,344.1,60.1z"/>
		<path class="st1" d="M392.8,107.9c2.8,6,8.5,9.1,14.4,8.1c1.3-0.2,2.5-0.9,3.7-1.5c0.9-0.5,1.2-1.4-0.1-1.9
			c-1.4-0.6-2.9-1.1-4.2-1.6c0.5-0.4,1-0.9,1.4-1.3c1,0.7,1.9,1.4,2.8,1.9c1.8,0.8,2,0.7,2.2-1.2c0.3-4-1.3-7.4-4.4-9.7
			c-5.2-3.9-11.1-3.7-17-2.2c-0.5,0.1-1.1,1.2-0.9,1.7C391.1,102.9,391.6,105.5,392.8,107.9z"/>
		<path class="st1" d="M90.7,160.7c1.6-0.2,1.7-0.6,0.9-2c-0.3-0.4-0.4-0.9-0.7-1.4c0.1-0.1,0.2-0.1,0.3-0.2
			c0.2,0.2,0.4,0.3,0.6,0.5c1.7,1.9,2.1,1.8,3.2-0.6c1.8-3.8,1.5-7.6-0.8-11.1c-3-4.6-7.7-6.7-12.8-7.9c-0.5-0.1-1.6,0.5-1.8,1
			c-2.2,6-2.3,11.9,1.6,17.2C83.5,159.4,86.7,161.1,90.7,160.7z"/>
		<path class="st1" d="M429.1,107.6c-4.5,1.3-8,5.3-8.4,9.6c-0.1,1.3,0.3,2.7,0.5,4.1c1.6-0.3,2.9-1,3.8-2.5
			c0.2-0.3,0.5-0.4,0.7-0.6c0.7,1.8,1.3,0.1,1.9-0.1c0.8-0.2,1.5-0.7,2.2-1c0,0.1,0.1,0.2,0.1,0.3c-1.1,0.8-2.2,1.5-3.4,2.3
			c0.2,0.1,0.3,0.2,0.3,0.2c0.3,0.1,0.6,0.1,0.6,0.1c-1.5,0.6-3.1,1.2-4.8,1.8c-1.6,0.6-1,1.2-0.1,1.9c2.8,1.9,5.7,2,8.9,1.1
			c6.2-1.7,10.5-8.8,10.9-15.8c0.1-0.9-0.3-1.4-1.3-1.6C437.1,106.6,433.1,106.5,429.1,107.6z"/>
		<path class="st1" d="M314,43.1C313.9,43.1,313.9,43.1,314,43.1C313.9,43.1,313.9,43.1,314,43.1C314,43.1,314,43.1,314,43.1z"/>
		<path class="st1" d="M327,39.4c3.7-4.4,4.3-9.5,3.7-15c-0.1-1.2-0.8-1.1-1.7-1.1c-3.7,0-7.3,0.7-10.6,2.3
			c-5.7,2.7-8.4,8.6-6.6,14.2c0.6,1.9,0.9,2,2.3,0.7c1.3-1.1,2-2.6,3.7-3.4c1.2-0.6,1.9-2,2.9-3c0.4-0.3,0.9-0.5,1.4-0.7
			c-1.2,1.7-2.9,2.8-3.9,4.4c-1,1.6-2.7,2.2-3.9,3.5c-0.7,0.7-0.7,1.2-0.4,1.9c0.4,0.1,0.7,0.1,1.1,0.2
			C319.8,44.4,323.8,43.2,327,39.4z"/>
		<path class="st1" d="M313.9,43.1L313.9,43.1C314,43.2,314,43.2,313.9,43.1C313.9,43.1,313.9,43.1,313.9,43.1z"/>
		<path class="st1" d="M416.1,101.7c0.4,2,1,2.1,2.4,0.7c0.8-0.8,1.4-1.8,2-2.6c0.6,0.3,1.1,0.7,1.7,1.1c0.1-0.1,0.2-0.2,0.3-0.2
			c0.1,0.2,0.1,0.4,0.2,0.5c-0.2-0.1-0.3-0.2-0.5-0.3c-1.5,1-3,2-4.6,3.1c3.3,2.7,8.5,2.8,11.9,0.4c5.5-3.7,6.8-9.4,7.3-15.5
			c0-0.4-0.7-1.2-1.2-1.3c-6-1.3-11.5-0.3-16.2,3.8C416.5,94.2,415.3,97.7,416.1,101.7z"/>
		<path class="st1" d="M422.6,100.7c-0.1,0.1-0.2,0.2-0.3,0.2c0.2,0.1,0.3,0.2,0.5,0.3C422.7,101,422.6,100.9,422.6,100.7z"/>
		<path class="st1" d="M333.7,57c1.1,0.6,1.7,0.7,1.8-0.8c0.2-2.5,0.6-5,0.9-7.5c0.1,0,0.1,0,0.2,0c0.2,1.4,0.6,2.9,0.5,4.3
			c-0.1,1.5-0.6,2.9-1,4.5c4.4-0.2,8.1-3.2,9.2-7.3c1.8-6.3-0.8-11.6-4.3-16.6c-0.2-0.3-1.4-0.5-1.8-0.2c-5.1,2.9-8.8,6.9-9.9,12.9
			C328.6,50.4,330.7,55.2,333.7,57z"/>
		<path class="st1" d="M88.3,134.1c4.4,1.1,8.8,1.6,13.1,0.1c4.6-1.6,7.3-4.9,7.9-9.8c0.1-1-0.4-2.1-0.6-3.1
			c-1.1,0.5-2.2,0.9-3.2,1.4c-0.2,0.1-0.3,0.6-0.5,0.8c-0.1,0.2-0.4,0.4-0.5,0.3c-1.5-0.9-2.4,0.4-3.4,0.9c-1.3,0.6-2.6,1.5-3.9,2.3
			c-0.1-0.2-0.2-0.4-0.4-0.5c2.2-1.3,4.4-2.6,7.1-4.1c-1.1-0.2-1.6-0.3-2.2-0.3c2.4,0.1,4.7-0.3,6.6-2.1c-2.3-2.7-5.3-3.3-8.5-2.8
			c-7.7,1-12.3,9.3-12.8,15.5C87.2,133.1,87.8,134,88.3,134.1z"/>
		<path class="st1" d="M115.8,221.2c-0.1-0.7,0-1.4-0.1-2.1c-0.3-1.6-1.1-2.9-1-4.7c0.1-2.2-1-2.6-2.7-1.2c-2.5,2-4.2,4.5-4.3,7.9
			c-0.3,6.4,3.4,10.7,7.9,14.7c1,0.9,1.5,0.7,2.3-0.1c3.4-3.3,5.5-7.3,6-12.1c0.4-4.3-2.1-9.2-5.4-10.8c-0.9-0.4-1.9-0.5-2.9-0.8
			c0.1,1,0,2,0.2,2.9c0.2,0.7,0.7,1.4,1,2.1c0.1,0.2,0.2,0.5,0.2,0.7c-1.8-0.2-0.7,1.1-0.7,1.6c0.1,2.9,0.4,5.8,0.6,8.6
			c-0.2,0-0.3,0.1-0.5,0.1C116.2,225.7,116,223.4,115.8,221.2z"/>
		<path class="st1" d="M106.1,154.1c-2.6,3.3-4.7,6.9-5.3,11.2c-0.7,5,1.6,9.6,6.2,11.7c1.8,0.9,2.4,0.7,2.3-1.3
			c0-2.8-0.3-5.6-0.4-8.4c-0.1-1.3-0.2-2.7-0.3-4c0.5,1,1,2.1,0.9,3.1c-0.3,3.2,1,6.3,0.5,9.5c-0.3,1.8,0.6,2.2,2,1
			c1.5-1.3,3-2.9,3.8-4.7c1.8-4.3,0.8-8.6-1.7-12.4c-1.1-1.7-2.4-3.2-3.7-4.7c-0.8-0.4-1.7-0.7-2.4-1.2
			C107.3,153.3,106.8,153.3,106.1,154.1z"/>
		<path class="st1" d="M110.5,155.1C110.5,155.1,110.5,155.1,110.5,155.1L110.5,155.1C110.5,155,110.5,155.1,110.5,155.1z"/>
		<path class="st1" d="M93.4,245.3c6.2-1.7,11.2-5,13-11.6c0.9-3.2,0.3-6.3-1.8-9c-1.3-1.6-1.7-1.5-2.4,0.4
			c-0.8,2.3-1.7,4.5-2.5,6.8c-0.2-0.1-0.3-0.2-0.5-0.3c0.8-2.4,1.5-4.9,2.4-7.3c0.5-1.3-0.1-1.6-1.2-1.5c-4.1,0.3-7.3,2.3-9,6
			c-2.5,5.3-1.3,10.5,0.7,15.7C92.2,245,93,245.4,93.4,245.3z"/>
		<path class="st1" d="M94.3,214.1c2.1,0.1,4-1.5,6.1-0.9c0.3,0.1,0.6,0,0.9-0.1c1.5-0.3,1.7-0.7,0.9-2.1c-1.9-3.4-6.3-5.7-10.2-5.2
			c-5.4,0.6-9.3,3.6-12.8,7.4c-0.3,0.3-0.3,1.4,0,1.8c3.9,4.5,8.6,7.2,14.7,6.8c3.8-0.3,6.6-2.1,8.4-5.4c0.4-0.7,0.3-1.6,0.5-2.4
			c-0.7,0-1.4,0-2.1,0.1c-4.4,0.3-8.9,0.6-13.3,0.9c0-0.3,0-0.6,0-0.8C89.8,214.1,92.1,214.1,94.3,214.1z"/>
		<path class="st1" d="M315.7,70.5c1.6-3.6,1.5-7.3-0.9-10.6c-2.9-4.1-7.2-5.8-11.8-6.9c-1.4-0.3-2-0.1-2.4,1.3
			c-1.7,5.1-1.4,10,1.5,14.6c1.9,3,4.8,4.8,8.5,4.8c0.9,0,1.8-0.4,2.7-0.7c-0.4-0.7-0.8-1.3-1.1-2c-0.1-0.1-0.1-0.3-0.2-1
			c0.5,0.5,0.8,0.6,1,0.8C314.5,72.4,314.9,72.4,315.7,70.5z"/>
		<path class="st1" d="M101,183.1c1.5-0.3,2.8-1.1,4.6-1.7c-3.6-3.6-8.2-4.3-12.2-2.1c-4.7,2.6-6.9,7-8.4,11.9c-0.3,1,0.1,1.6,1.1,2
			c5.7,2.2,11.3,2.4,16.5-1.4c3.2-2.3,4.5-6.7,3.1-9.8c-2.3,0.9-3.5,3.6-6.5,3.4c0.6-0.5,1.1-0.9,1.7-1.2
			C101.1,183.9,99.6,183.4,101,183.1z"/>
		<path class="st1" d="M149.3,213.8c0.3,0.2,0.8,0.1,1.2,0.1c1.6,0,1.9-0.5,1-1.8c-0.9-1.3-2-2.6-3.3-3.3c-5.5-3-14.9,0.3-17.4,6
			c-0.2,0.4-0.1,1.2,0.2,1.5c3.7,3.4,7.9,6,13.2,5.5c4.1-0.4,7.2-3.2,7.7-6.9c-2.6-0.2-5.2-0.4-7.9-0.6c0-0.2,0-0.3,0-0.5
			C145.8,214.4,147.5,212.8,149.3,213.8z"/>
		<path class="st1" d="M288.2,44.8c3.6,0.2,7.5-2.2,8.7-5.2c0.2-0.6,0.2-1.2,0.3-1.8c-0.6,0-1.2-0.1-1.8,0
			c-3.7,0.7-7.4,0.8-11.1,0.8c2.1-0.3,4.2-0.5,6.3-0.8c2.1-0.3,4.3-0.7,6.5-1.1c-1.5-4.5-6.5-6.5-10.3-5.7
			c-4.2,0.9-7.4,3.3-10.1,6.5c-0.7,0.8-0.2,1.2,0.2,1.8C280,42.8,283.8,44.6,288.2,44.8z"/>
		<path class="st1" d="M355,257.4c-2.4,3.1-1.3,9.1,2.1,11.5c0.3,0.2,1.3,0.1,1.6-0.2c1.4-1.4,2.6-2.9,3.7-4.1
			c1.3,1.3,2.5,3.1,4.2,4.2c1.5,1,3.5,1.2,5.2,1.8c0.3-1.8,0.9-3.7,0.9-5.5c0-2.8-1.3-5-3.9-6.4c-2.1-1.1-4-0.5-5.7,1.3
			c-0.9-2.2-1.6-4.2-4.1-4.6c-0.1,2.3-0.2,4.5-0.3,6.8c-0.1,0-0.2,0-0.4,0c0-2.2,0-4.5,0-7.3C356.8,255.9,355.7,256.5,355,257.4z"/>
		<path class="st1" d="M203.6,84.4c0.6-0.1,1.3-0.1,1.8-0.3c2.7-1,4.7-2.7,5.5-5.5c1.4-4.7-0.1-8.9-2.5-12.8c-0.2-0.3-1-0.5-1.3-0.3
			c-4.4,1.8-7.6,4.8-8.7,9.6c-0.6,2.8-0.2,5.5,1.8,7.8c0.5,0.5,1.3,0.8,1.9,1.2c0.2-0.6,0.5-1.3,0.7-1.9c0.2-1.1,0.4-2.1,0.6-3.2
			c0.2,0,0.4,0.1,0.7,0.1c-0.2,1.1-0.5,2.2-0.6,3.3C203.4,83,203.5,83.7,203.6,84.4z"/>
		<path class="st1" d="M415.8,123.7c1.3,0,1.5-0.5,1.1-1.6c-0.9-2.2-2.3-3.7-4.5-4.6c-3.9-1.6-11,0.1-13.9,3.3
			c-0.7,0.8-0.3,1.3,0.1,1.8c2.1,3.4,5.1,5.9,9.1,6.7c3.3,0.7,6.3-0.1,8.5-2.8c0.4-0.5,0.5-1.2,0.7-1.9c-0.6-0.1-1.2-0.4-1.8-0.4
			c-1.4-0.1-2.7,0-4.1,0c0-0.2-0.1-0.3-0.1-0.5C412.6,123.7,414.2,123.7,415.8,123.7z"/>
		<path class="st1" d="M356.2,245c-1.4-0.4-1.8-0.1-1.5,1.3c0.6,2.9,2.1,5,5,6.1c2.6,1,5.2,0.8,7.9,0c3.8-1.1,4-1.3,2.2-4.8
			c-1.8-3.5-4.3-6.2-8.6-6.6c-2.7-0.2-4.8,0.7-6,2.9c1.2,0.3,2.4,0.7,3.6,1c-0.1,0.2-0.1,0.5-0.2,0.7
			C357.7,245.5,356.9,245.2,356.2,245z"/>
		<path class="st1" d="M256.6,118.4c-0.3,1.4-0.3,2.8,1.3,3.9c2.2,1.6,4.5,1.9,6.9,0.6c3.3-1.8,4.2-5,4.7-8.4
			c0.5-3.1,0.3-3.3-2.7-3.4c-1.2,0.2-2.5,0.3-3.7,0.6C259.6,112.8,257.3,114.9,256.6,118.4z"/>
		<path class="st1" d="M108.1,202.3c0.9,0,1.9,0,2.8,0c-0.4-1-0.7-2.1-1.2-3c-0.3-0.5-0.8-0.9-1.3-1.3c-3.9-3.1-9.2-1.1-12.6,1.2
			c-0.3,0.2-0.4,1-0.3,1.4c1.7,3.7,5.8,7.2,10.6,6.4c2.1-0.3,4-1.2,4.7-3.5c-1.7-0.3-3.2-0.6-4.7-0.8c0-0.1,0.1-0.1,0.1-0.2
			C106.8,202.4,107.5,202.3,108.1,202.3z"/>
		<path class="st1" d="M378.9,134.4c-1.2,1.3-1.2,1.9-0.3,3.7c0,0.1,0,0.3,0,0.3c-1.4,1.1-0.2,1.9,0.6,2.3c1.4,0.9,3,1.5,4.6,2.2
			c2.3-0.4,4.8-1.4,6.5-3.3c3.9-4.2,3.9-4.1-1.3-6.8C385.3,131,381.3,131.8,378.9,134.4z"/>
		<path class="st1" d="M279.7,102.4c3,0.6,5.7-1.7,5.3-4.4c-0.1-0.6-0.2-1.2-0.4-1.8c-1.3-3.6-7.3-6.5-10.9-5.2
			c-0.3,0.1-0.7,0.6-0.8,1C272.5,95.9,274.8,101.4,279.7,102.4z"/>
		<path class="st1" d="M179.2,235.8c0.1,0.8,0.1,1.7,1.4,1.7c3.8,0.1,8.4-3.2,9.3-6.9c0.9-3.7-1.6-6.3-5.4-5.7c-0.5,0-1,0.1-1.5,0.1
			C179.5,227.8,178.7,231.6,179.2,235.8z"/>
		<path class="st1" d="M343,253.9c-0.5,1.8-0.5,3.9-0.4,5.8c0.1,2.2,0.5,2.4,2.6,2c5.6-1.2,8.1-4.5,7.9-10.7
			C349.4,247.6,344.3,249,343,253.9z"/>
		<path class="st1" d="M353.1,251C353.1,251,353.2,251,353.1,251L353.1,251C353.1,251,353.1,251,353.1,251z"/>
		<path class="st1" d="M392.6,170.9c0.2-2.5-0.1-2.8-2.7-2.8c-4.2,0-7.7,2.1-9,5.5c-0.7,1.8-0.4,3.6,0.8,4.6c2.4,2,4.7,2.1,7.3,0.2
			C391.4,176.5,392.3,173.8,392.6,170.9z"/>
		<path class="st1" d="M254.9,110.8C254.8,110.7,254.8,110.7,254.9,110.8C254.8,110.7,254.8,110.8,254.9,110.8
			C254.9,110.8,254.9,110.8,254.9,110.8z"/>
		<path class="st1" d="M263.4,109.5c1.8-2.7,1.4-5.7,0.7-8.7c-0.3-1.3-1.3-0.9-2.1-0.7c-5.5,1.3-8,5.1-7.2,10.7
			C258.3,113.1,261.3,112.7,263.4,109.5z"/>
		<path class="st1" d="M254.9,110.8C254.8,110.8,254.8,110.7,254.9,110.8C254.8,110.7,254.8,110.7,254.9,110.8L254.9,110.8z"/>
		<path class="st1" d="M267.1,73.6c0.8-2.5,0.6-5.1-0.8-7.6c0.7,3.6,0.4,6.7-1.8,9.5c-0.8,1-1.7,2.6-0.2,4c0.3-0.3,0.7-0.7,1-1
			C265.9,76.8,266.5,75.2,267.1,73.6z"/>
		<path class="st1" d="M279.2,64.4c0.4-0.5,0.6-1.2,0.8-1.7c-0.7,0-1.6-0.4-2.2-0.1c-0.7,0.3-1.3,0.7-1.9,1.1
			c-0.6,0.4-1.2,0.9-1.9,1.3c0.1,0.4,0,1,0.2,1c0.5,0.2,1.1,0.3,1.7,0.4c0.4,0.1,0.8,0.1,1.2,0.2C277.9,65.9,278.6,65.2,279.2,64.4z
			"/>
		<path class="st1" d="M234.1,462.3c1.5,2.4,1.8,4.8,1.1,7.5c2.1-3.9,0.6-7.5-1-11c-0.3,0.3-0.6,0.7-0.8,1
			C233.6,460.6,233.7,461.6,234.1,462.3z"/>
		<path class="st1" d="M116,111.7c0.2-0.2,0.1-1-0.2-1.2c-0.9-0.8-3.9-0.6-4.9,0.2c1,1,2,1.9,3,2.9C114.6,113,115.4,112.4,116,111.7
			z"/>
		<path class="st1" d="M110.8,119.4c1.7-1.2,3.3-2.5,5-3.7c-0.2-0.2-0.4-0.4-0.6-0.6C113,115.7,111.8,117.4,110.8,119.4z"/>
		<path class="st1" d="M303.8,39.6c0.1,0.1,0.1,0.1,0.2,0.2l0-0.1C303.9,39.7,303.8,39.7,303.8,39.6z"/>
		<path class="st1" d="M297.6,34.9c1.1,1.1,2.2,2.3,3.4,3.2c0.8,0.6,1.8,1,2.7,1.5c-2.2-1.9-4.4-3.8-7-6
			C297.2,34.4,297.4,34.7,297.6,34.9z"/>
		<path class="st1" d="M203.3,125.7c-0.7-0.6-1.6-1.1-2.4-1.6c-0.1,0.6,0,0.8,0.2,0.9c2.9,2.4,5.3,5.1,5.7,9.1
			c0.1,0.6,0.6,1.2,0.9,1.9c0.3-0.3,0.6-0.7,1-1C208.3,131.1,206.1,128.3,203.3,125.7z"/>
		<path class="st1" d="M222.7,178c2.5,0.7,2.7,0.4,2.2-2.5c1.7,2.6,1.8,2.6,3.4,0.5c1.9-2.4,2.3-5.2,1.5-8.1
			c-1.3-5.1-5.3-7.8-9.7-10c-0.3-0.1-1.1,0.3-1.4,0.6c-2.5,3.5-3.5,7.5-2.7,11.7C216.7,173.9,218.7,176.9,222.7,178z"/>
		<path class="st1" d="M195.6,139.7c3.7,0.3,8.2-2.4,9.1-5.3c0.5-1.5,0.2-1.8-1.4-1.7c-1.8,0.2-3.6,0.5-5.4,0.7c0-0.2,0-0.4,0-0.7
			c1.7-0.2,3.4-0.4,5-0.6c1.8-0.2,2.1-0.7,1.1-2.2c-1.4-2-3.3-3.4-5.8-3.9c-4.5-0.8-11.7,2.6-13.9,6.5c-0.2,0.4,0,1.2,0.3,1.6
			C187.6,137.5,191.3,139.4,195.6,139.7z"/>
		<path class="st1" d="M341.3,135.3c-0.1,0.6,0.1,1.4,0.2,2c0.6-0.1,1.2-0.2,1.7-0.4c0.9-0.3,1.7-0.7,2.6-1c0.1,1.9-1.6,1.1-2.4,1.6
			c-1.5,1-1.7,1.5-0.1,2.6c2,1.5,4.3,2.3,6.9,1.9c5.8-1,8.7-5.4,10.9-10.2c0.2-0.4-0.3-1.3-0.8-1.6c-2.4-1.7-5.2-2.3-8.1-2.4
			c-0.9,0.1-1.9,0.2-2.8,0.3C345.4,128.6,342,131.6,341.3,135.3z"/>
		<path class="st1" d="M335.5,141.3c0.7-3-0.3-5.6-1.5-8.3c-0.6-1.4-1.5-1.9-3-1c-3.1,1.8-5.3,4.3-5.9,7.9c-0.4,2.4,0.5,4.4,2.1,6
			c0.8,0.7,1.4,0.7,1.5-0.6c0.1-0.9,0.3-1.8,0.5-2.7c0.2,0,0.4,0.1,0.6,0.1c-0.1,0.6-0.3,1.2-0.4,1.9c-0.1,0.6,0,1.2,0,1.8
			c0.6,0,1.3,0.1,1.8-0.1c0.7-0.3,1.4-0.8,2-1.3c0.8-0.8,1.6-1.7,2.4-2.5l-0.1,0.1C335.5,142.3,335.4,141.8,335.5,141.3z"/>
		<path class="st1" d="M298.4,123c0.3-0.3,0.4-0.9,0.6-1.4c0.5,1,1.6,1.9-0.4,2.5c-0.6,0.2-0.9,1.2-1.3,1.8c0.6,0.4,1.1,0.9,1.7,1.1
			c3,0.9,6.8-0.4,8.9-3.1c2.2-2.9,3-6.2,3.3-9.7c0.1-1.3-0.6-1.7-1.6-1.8c-3.2-0.4-6.4,0-9.2,1.6c-3.2,1.7-5.2,4.4-5.1,8.2
			c0,1,0.8,1.9,1.2,2.9C297.1,124.3,297.8,123.7,298.4,123z"/>
	</g>
</g>
</svg>
